<svg width="178" height="177" viewBox="0 0 178 177" fill="none" xmlns="http://www.w3.org/2000/svg">
<mask id="path-1-inside-1_2549_10932" fill="white">
<path fillRule="evenodd" clipRule="evenodd" d="M40.0712 0C45.5941 0 50.0506 5.7722 50.0251 12.8926C50.0216 13.8654 49.9337 15.0783 49.7704 16.4476C50.6276 15.3744 51.4269 14.4637 52.1155 13.78C57.1684 8.76323 64.4305 7.86215 68.3357 11.7674C72.241 15.6727 71.3106 22.9055 66.2577 27.9223C65.5681 28.607 64.6493 29.4016 63.567 30.2535C64.9303 30.1011 66.1381 30.0224 67.1074 30.0259C74.2278 30.0515 80 34.5493 80 40.0722C80 45.5951 74.2278 50.0516 67.1074 50.026C66.2586 50.023 65.2268 49.9557 64.0678 49.8301C64.9748 50.5541 65.7515 51.2303 66.3544 51.8242C71.4269 56.8212 72.4085 64.0728 68.5469 68.0211C64.6852 71.9695 57.4425 71.1195 52.3699 66.1225C51.5924 65.3566 50.6731 64.3033 49.6876 63.0546C49.8792 64.6282 49.979 66.0183 49.9751 67.1074C49.9495 74.2278 45.4516 80 39.9288 80C34.4059 80 29.9494 74.2278 29.9749 67.1074C29.9784 66.1359 30.0661 64.9248 30.229 63.5575C29.3727 64.6293 28.5743 65.539 27.8865 66.2219C22.8335 71.2387 15.5715 72.1398 11.6662 68.2345C7.76096 64.3293 8.69132 57.0965 13.7442 52.0797C14.4343 51.3946 15.3536 50.5994 16.4368 49.7471C15.0719 49.8997 13.8628 49.9785 12.8926 49.9751C5.7722 49.9495 0 45.4516 0 39.9288C0 34.4059 5.7722 29.9494 12.8926 29.9749C13.7409 29.978 14.7719 30.0452 15.9301 30.1707C15.024 29.4473 14.2481 28.7716 13.6456 28.1782C8.57307 23.1813 7.59146 15.9297 11.4532 11.9813C15.3148 8.03293 22.5575 8.88297 27.6301 13.8799C28.4077 14.6459 29.3271 15.6993 30.3127 16.9483C30.1209 15.3735 30.021 13.9823 30.0249 12.8926C30.0505 5.7722 34.5484 0 40.0712 0ZM39.9989 40.0002C39.9993 39.9997 39.9997 39.9993 40.0001 39.9989H40.0001L40.0011 39.9998L40.0011 40.0011L39.9998 40.0011L39.9989 40.0003L39.9989 40.0002Z"/>
</mask>
<path fillRule="evenodd" clipRule="evenodd" d="M40.0712 0C45.5941 0 50.0506 5.7722 50.0251 12.8926C50.0216 13.8654 49.9337 15.0783 49.7704 16.4476C50.6276 15.3744 51.4269 14.4637 52.1155 13.78C57.1684 8.76323 64.4305 7.86215 68.3357 11.7674C72.241 15.6727 71.3106 22.9055 66.2577 27.9223C65.5681 28.607 64.6493 29.4016 63.567 30.2535C64.9303 30.1011 66.1381 30.0224 67.1074 30.0259C74.2278 30.0515 80 34.5493 80 40.0722C80 45.5951 74.2278 50.0516 67.1074 50.026C66.2586 50.023 65.2268 49.9557 64.0678 49.8301C64.9748 50.5541 65.7515 51.2303 66.3544 51.8242C71.4269 56.8212 72.4085 64.0728 68.5469 68.0211C64.6852 71.9695 57.4425 71.1195 52.3699 66.1225C51.5924 65.3566 50.6731 64.3033 49.6876 63.0546C49.8792 64.6282 49.979 66.0183 49.9751 67.1074C49.9495 74.2278 45.4516 80 39.9288 80C34.4059 80 29.9494 74.2278 29.9749 67.1074C29.9784 66.1359 30.0661 64.9248 30.229 63.5575C29.3727 64.6293 28.5743 65.539 27.8865 66.2219C22.8335 71.2387 15.5715 72.1398 11.6662 68.2345C7.76096 64.3293 8.69132 57.0965 13.7442 52.0797C14.4343 51.3946 15.3536 50.5994 16.4368 49.7471C15.0719 49.8997 13.8628 49.9785 12.8926 49.9751C5.7722 49.9495 0 45.4516 0 39.9288C0 34.4059 5.7722 29.9494 12.8926 29.9749C13.7409 29.978 14.7719 30.0452 15.9301 30.1707C15.024 29.4473 14.2481 28.7716 13.6456 28.1782C8.57307 23.1813 7.59146 15.9297 11.4532 11.9813C15.3148 8.03293 22.5575 8.88297 27.6301 13.8799C28.4077 14.6459 29.3271 15.6993 30.3127 16.9483C30.1209 15.3735 30.021 13.9823 30.0249 12.8926C30.0505 5.7722 34.5484 0 40.0712 0ZM39.9989 40.0002C39.9993 39.9997 39.9997 39.9993 40.0001 39.9989H40.0001L40.0011 39.9998L40.0011 40.0011L39.9998 40.0011L39.9989 40.0003L39.9989 40.0002Z" fill="#F8A5B5"/>
<path d="M50.0251 12.8926L49.2251 12.8897V12.8897L50.0251 12.8926ZM49.7704 16.4476L48.976 16.3529L48.6436 19.14L50.3954 16.9469L49.7704 16.4476ZM52.1155 13.78L52.6791 14.3477L52.1155 13.78ZM68.3357 11.7674L67.77 12.3331L68.3357 11.7674ZM66.2577 27.9223L65.6941 27.3546L65.6941 27.3546L66.2577 27.9223ZM63.567 30.2535L63.0722 29.6248L60.8672 31.3603L63.6558 31.0485L63.567 30.2535ZM67.1074 30.0259L67.1103 29.2259L67.1074 30.0259ZM67.1074 50.026L67.1046 50.826L67.1074 50.026ZM64.0678 49.8301L64.154 49.0347L61.4175 48.7381L63.5687 50.4553L64.0678 49.8301ZM66.3544 51.8242L65.7929 52.3942L66.3544 51.8242ZM52.3699 66.1225L51.8085 66.6925L52.3699 66.1225ZM49.6876 63.0546L50.3156 62.559L48.5488 60.3202L48.8935 63.1513L49.6876 63.0546ZM49.9751 67.1074L49.1751 67.1046L49.9751 67.1074ZM29.9749 67.1074L29.1749 67.1046L29.9749 67.1074ZM30.229 63.5575L31.0234 63.6522L31.3554 60.866L29.604 63.0582L30.229 63.5575ZM27.8865 66.2219L28.4501 66.7896H28.4501L27.8865 66.2219ZM11.6662 68.2345L11.1005 68.8002H11.1005L11.6662 68.2345ZM13.7442 52.0797L14.3079 52.6474L13.7442 52.0797ZM16.4368 49.7471L16.9315 50.3757L19.1371 48.64L16.3478 48.952L16.4368 49.7471ZM12.8926 49.9751L12.8954 49.1751L12.8926 49.9751ZM12.8926 29.9749L12.8897 30.7749L12.8926 29.9749ZM15.9301 30.1707L15.8439 30.966L18.5798 31.2624L16.4292 29.5455L15.9301 30.1707ZM13.6456 28.1782L14.2071 27.6083L13.6456 28.1782ZM11.4532 11.9813L10.8812 11.4219L11.4532 11.9813ZM27.6301 13.8799L28.1915 13.31L27.6301 13.8799ZM30.3127 16.9483L29.6847 17.4439L31.4517 19.6829L31.1068 16.8516L30.3127 16.9483ZM30.0249 12.8926L30.8249 12.8954L30.0249 12.8926ZM39.9989 40.0002L39.4104 39.4582L39.1908 39.6966L39.1991 40.0207L39.9989 40.0002ZM40.0001 39.9989V39.1989H39.6493L39.4116 39.4569L40.0001 39.9989ZM40.0001 39.9989L40.5487 39.4166L40.3176 39.1989H40.0001V39.9989ZM40.0011 39.9998L40.8008 39.9765L40.7911 39.645L40.5497 39.4175L40.0011 39.9998ZM40.0011 40.0011L40.0276 40.8007L40.824 40.7743L40.8008 39.9779L40.0011 40.0011ZM39.9998 40.0011L39.4519 40.5841L39.6941 40.8117L40.0262 40.8007L39.9998 40.0011ZM39.9989 40.0003L39.1991 40.0208L39.2077 40.3546L39.451 40.5833L39.9989 40.0003ZM50.8251 12.8954C50.8515 5.53419 46.2152 -0.8 40.0712 -0.8V0.8C44.973 0.8 49.2497 6.0102 49.2251 12.8897L50.8251 12.8954ZM50.5647 16.5424C50.7302 15.1548 50.8214 13.9092 50.8251 12.8954L49.2251 12.8897C49.2217 13.8215 49.1371 15.0018 48.976 16.3529L50.5647 16.5424ZM51.5518 13.2123C50.8342 13.9248 50.014 14.8608 49.1453 15.9483L50.3954 16.9469C51.2412 15.8881 52.0196 15.0026 52.6791 14.3477L51.5518 13.2123ZM68.9014 11.2017C64.5599 6.86021 56.7756 8.02588 51.5518 13.2123L52.6791 14.3477C57.5612 9.50058 64.301 8.8641 67.77 12.3331L68.9014 11.2017ZM66.8214 28.49C72.0452 23.3035 73.2458 15.5462 68.9014 11.2017L67.77 12.3331C71.2361 15.7992 70.576 22.5075 65.6941 27.3546L66.8214 28.49ZM64.0617 30.8821C65.1585 30.0189 66.1027 29.2036 66.8214 28.49L65.6941 27.3546C65.0335 28.0104 64.1401 28.7843 63.0722 29.6248L64.0617 30.8821ZM67.1103 29.2259C66.1001 29.2223 64.8597 29.304 63.4781 29.4584L63.6558 31.0485C65.0009 30.8982 66.1761 30.8226 67.1046 30.8259L67.1103 29.2259ZM80.8 40.0722C80.8 33.9324 74.4714 29.2523 67.1103 29.2259L67.1046 30.8259C73.9842 30.8506 79.2 35.1663 79.2 40.0722H80.8ZM67.1046 50.826C74.4658 50.8524 80.8 46.2162 80.8 40.0722H79.2C79.2 44.974 73.9898 49.2507 67.1103 49.2261L67.1046 50.826ZM63.9816 50.6254C65.1581 50.7529 66.2192 50.8229 67.1046 50.826L67.1103 49.2261C66.2979 49.2231 65.2955 49.1584 64.154 49.0347L63.9816 50.6254ZM66.9158 51.2543C66.287 50.6349 65.4877 49.9398 64.5669 49.2048L63.5687 50.4553C64.462 51.1683 65.216 51.8258 65.7929 52.3942L66.9158 51.2543ZM69.1188 68.5805C73.4119 64.1911 72.1599 56.4202 66.9158 51.2543L65.7929 52.3942C70.694 57.2221 71.4052 63.9545 67.9749 67.4618L69.1188 68.5805ZM51.8085 66.6925C57.0527 71.8584 64.8228 72.9729 69.1188 68.5805L67.9749 67.4618C64.5475 70.9661 57.8323 70.3805 52.9314 65.5526L51.8085 66.6925ZM49.0596 63.5502C50.0568 64.8138 50.9989 65.8949 51.8085 66.6925L52.9314 65.5526C52.186 64.8184 51.2894 63.7929 50.3156 62.559L49.0596 63.5502ZM50.775 67.1103C50.7791 65.9761 50.6756 64.5503 50.4818 62.9579L48.8935 63.1513C49.0828 64.7061 49.1788 66.0605 49.1751 67.1046L50.775 67.1103ZM39.9288 80.8C46.0686 80.8 50.7487 74.4714 50.775 67.1103L49.1751 67.1046C49.1504 73.9842 44.8347 79.2 39.9288 79.2V80.8ZM29.1749 67.1046C29.1485 74.4658 33.7848 80.8 39.9288 80.8V79.2C35.027 79.2 30.7502 73.9898 30.7749 67.1103L29.1749 67.1046ZM29.4346 63.4629C29.2696 64.8483 29.1786 66.0921 29.1749 67.1046L30.7749 67.1103C30.7783 66.1797 30.8627 65.0012 31.0234 63.6522L29.4346 63.4629ZM28.4501 66.7896C29.167 66.0779 29.9863 65.143 30.854 64.0569L29.604 63.0582C28.7592 64.1156 27.9817 65 27.3228 65.6542L28.4501 66.7896ZM11.1005 68.8002C15.4421 73.1417 23.2263 71.9761 28.4501 66.7896L27.3228 65.6542C22.4408 70.5014 15.7009 71.1378 12.2319 67.6688L11.1005 68.8002ZM13.1806 51.512C7.95673 56.6985 6.7561 64.4558 11.1005 68.8002L12.2319 67.6688C8.76583 64.2028 9.4259 57.4945 14.3079 52.6474L13.1806 51.512ZM15.942 49.1184C14.8445 49.9821 13.8997 50.798 13.1806 51.512L14.3079 52.6474C14.9688 51.9912 15.8628 51.2168 16.9315 50.3757L15.942 49.1184ZM12.8897 50.775C13.9008 50.7787 15.1426 50.6968 16.5257 50.5421L16.3478 48.952C15.0012 49.1027 13.8247 49.1784 12.8954 49.1751L12.8897 50.775ZM-0.8 39.9288C-0.8 46.0686 5.52855 50.7487 12.8897 50.775L12.8954 49.1751C6.01584 49.1504 0.8 44.8347 0.8 39.9288H-0.8ZM12.8954 29.1749C5.53419 29.1485 -0.8 33.7848 -0.8 39.9288H0.8C0.8 35.027 6.0102 30.7502 12.8897 30.7749L12.8954 29.1749ZM16.0162 29.3753C14.8406 29.248 13.7802 29.1781 12.8954 29.1749L12.8897 30.7749C13.7016 30.7778 14.7033 30.8425 15.8439 30.966L16.0162 29.3753ZM13.0842 28.7481C13.7125 29.3671 14.511 30.0615 15.4309 30.7959L16.4292 29.5455C15.5369 28.8331 14.7836 28.1762 14.2071 27.6083L13.0842 28.7481ZM10.8812 11.4219C6.58814 15.8114 7.84012 23.5822 13.0842 28.7481L14.2071 27.6083C9.30602 22.7803 8.59478 16.048 12.0251 12.5407L10.8812 11.4219ZM28.1915 13.31C22.9473 8.14401 15.1772 7.02953 10.8812 11.4219L12.0251 12.5407C15.4525 9.03633 22.1677 9.62193 27.0686 14.4498L28.1915 13.31ZM30.9407 16.4527C29.9434 15.1889 29.0012 14.1077 28.1915 13.31L27.0686 14.4498C27.8141 15.1842 28.7108 16.2097 29.6847 17.4439L30.9407 16.4527ZM29.2249 12.8897C29.2209 14.0246 29.3245 15.4514 29.5186 17.045L31.1068 16.8516C30.9173 15.2956 30.8212 13.9401 30.8249 12.8954L29.2249 12.8897ZM40.0712 -0.8C33.9314 -0.8 29.2513 5.52855 29.2249 12.8897L30.8249 12.8954C30.8496 6.01584 35.1653 0.8 40.0712 0.8V-0.8ZM40.5873 40.5421C40.5882 40.5412 40.589 40.5403 40.5895 40.5398C40.5899 40.5393 40.5903 40.5389 40.5904 40.5388C40.5908 40.5384 40.5897 40.5395 40.5885 40.5408L39.4116 39.4569C39.4107 39.4579 39.41 39.4587 39.4095 39.4592C39.409 39.4597 39.4086 39.4602 39.4086 39.4602C39.4082 39.4607 39.4092 39.4595 39.4104 39.4582L40.5873 40.5421ZM40.0001 39.1989H40.0001V40.7989H40.0001V39.1989ZM40.5497 39.4175L40.5487 39.4166L39.4515 40.5812L39.4525 40.5821L40.5497 39.4175ZM40.8008 39.9779L40.8008 39.9765L39.2014 40.023L39.2015 40.0243L40.8008 39.9779ZM40.0262 40.8007L40.0276 40.8007L39.9747 39.2015L39.9733 39.2016L40.0262 40.8007ZM39.451 40.5833L39.4519 40.5841L40.5476 39.4181L40.5467 39.4173L39.451 40.5833ZM39.1991 40.0207L39.1991 40.0208L40.7986 39.9798L40.7986 39.9797L39.1991 40.0207Z" fill="#F7CA87" mask="url(#path-1-inside-1_2549_10932)"/>
<circle cx="40.0001" cy="40.0001" r="15.0001" fill="#F7CA87"/>
<path d="M139.981 18.1246L140.184 18.9631L140.693 18.2662L150.657 4.61371L148.05 21.3134L147.916 22.1658L148.653 21.7166L163.083 12.9165L154.283 27.347L153.834 28.0836L154.687 27.9504L171.386 25.3425L157.734 35.3069L157.037 35.8155L157.875 36.0187L174.302 40L157.875 43.9813L157.037 44.1845L157.734 44.6931L171.386 54.6575L154.687 52.0496L153.834 51.9164L154.283 52.653L163.083 67.0835L148.653 58.2834L147.916 57.8342L148.05 58.6866L150.657 75.3863L140.693 61.7338L140.184 61.0369L139.981 61.8754L136 78.3018L132.019 61.8754L131.816 61.0369L131.307 61.7338L121.343 75.3863L123.95 58.6866L124.084 57.8342L123.347 58.2834L108.917 67.0835L117.717 52.653L118.166 51.9164L117.313 52.0496L100.614 54.6575L114.266 44.6931L114.963 44.1845L114.125 43.9813L97.6982 40L114.125 36.0187L114.963 35.8155L114.266 35.3069L100.614 25.3425L117.313 27.9504L118.166 28.0836L117.717 27.347L108.917 12.9165L123.347 21.7166L124.084 22.1658L123.95 21.3134L121.343 4.61371L131.307 18.2662L131.816 18.9631L132.019 18.1246L136 1.69815L139.981 18.1246Z" fill="#89E6CE" stroke="#F7CA87" strokeWidth="0.8"/>
<circle cx="136" cy="40" r="15" fill="#F7CA87"/>
<mask id="path-6-inside-2_2549_10932" fill="white">
<path fillRule="evenodd" clipRule="evenodd" d="M39.9277 96C42.8981 96 45.5867 101.781 47.4414 108.233C52.5429 103.004 58.4021 98.5375 61.1915 100.148C63.7556 101.628 63.2052 107.944 61.5975 114.436C68.0725 112.786 74.3759 112.197 75.8574 114.763C77.4659 117.549 73.0366 123.439 67.8414 128.58C74.263 130.434 80 133.113 80 136.072C80 138.748 75.3074 141.162 69.6596 142.936C74.0077 147.573 77.2739 152.434 75.8574 154.887C74.3759 157.454 68.0725 156.864 61.5975 155.214C63.2052 161.707 63.7556 168.022 61.1915 169.502C58.4932 171.06 52.9225 166.931 47.9437 161.927C46.0916 169.076 43.1784 176 39.9277 176C36.9645 176 34.3229 170.246 32.5148 163.813C28.0729 167.865 23.5344 170.783 21.1915 169.43C18.6251 167.948 19.2146 161.644 20.8654 155.169C14.3724 156.776 8.05665 157.327 6.57617 154.763C5.22287 152.419 8.16093 147.907 12.2365 143.499C5.78342 141.69 0 139.043 0 136.072C0 132.822 6.92349 129.908 14.0724 128.056C9.10367 123.098 5.02655 117.571 6.57617 114.887C8.05665 112.323 14.3724 112.874 20.8654 114.482C19.2146 108.006 18.6251 101.702 21.1915 100.22C23.6309 98.8116 28.4502 102.032 33.0627 106.343C34.8372 100.694 37.2512 96 39.9277 96Z"/>
</mask>
<path fillRule="evenodd" clipRule="evenodd" d="M39.9277 96C42.8981 96 45.5867 101.781 47.4414 108.233C52.5429 103.004 58.4021 98.5375 61.1915 100.148C63.7556 101.628 63.2052 107.944 61.5975 114.436C68.0725 112.786 74.3759 112.197 75.8574 114.763C77.4659 117.549 73.0366 123.439 67.8414 128.58C74.263 130.434 80 133.113 80 136.072C80 138.748 75.3074 141.162 69.6596 142.936C74.0077 147.573 77.2739 152.434 75.8574 154.887C74.3759 157.454 68.0725 156.864 61.5975 155.214C63.2052 161.707 63.7556 168.022 61.1915 169.502C58.4932 171.06 52.9225 166.931 47.9437 161.927C46.0916 169.076 43.1784 176 39.9277 176C36.9645 176 34.3229 170.246 32.5148 163.813C28.0729 167.865 23.5344 170.783 21.1915 169.43C18.6251 167.948 19.2146 161.644 20.8654 155.169C14.3724 156.776 8.05665 157.327 6.57617 154.763C5.22287 152.419 8.16093 147.907 12.2365 143.499C5.78342 141.69 0 139.043 0 136.072C0 132.822 6.92349 129.908 14.0724 128.056C9.10367 123.098 5.02655 117.571 6.57617 114.887C8.05665 112.323 14.3724 112.874 20.8654 114.482C19.2146 108.006 18.6251 101.702 21.1915 100.22C23.6309 98.8116 28.4502 102.032 33.0627 106.343C34.8372 100.694 37.2512 96 39.9277 96Z" fill="#EE7802"/>
<path d="M47.4414 108.233L46.6725 108.454L47.0528 109.777L48.014 108.792L47.4414 108.233ZM61.1915 100.148L60.7915 100.841V100.841L61.1915 100.148ZM61.5975 114.436L60.8209 114.244L60.4996 115.542L61.7951 115.212L61.5975 114.436ZM75.8574 114.763L75.1646 115.163L75.8574 114.763ZM67.8414 128.58L67.2787 128.011L66.3095 128.97L67.6195 129.348L67.8414 128.58ZM69.6596 142.936L69.4198 142.173L68.2051 142.555L69.0761 143.483L69.6596 142.936ZM75.8574 154.887L75.1646 154.487L75.8574 154.887ZM61.5975 155.214L61.7951 154.439L60.4996 154.108L60.8209 155.406L61.5975 155.214ZM61.1915 169.502L61.5915 170.195H61.5915L61.1915 169.502ZM47.9437 161.927L48.5108 161.363L47.5211 160.368L47.1692 161.726L47.9437 161.927ZM32.5148 163.813L33.285 163.597L32.934 162.348L31.9757 163.222L32.5148 163.813ZM21.1915 169.43L21.5915 168.737L21.1915 169.43ZM20.8654 155.169L21.6406 155.366L21.9709 154.071L20.6731 154.392L20.8654 155.169ZM6.57617 154.763L5.88335 155.163H5.88335L6.57617 154.763ZM12.2365 143.499L12.8239 144.042L13.7119 143.082L12.4524 142.729L12.2365 143.499ZM14.0724 128.056L14.273 128.831L15.6289 128.479L14.6375 127.49L14.0724 128.056ZM6.57617 114.887L5.88335 114.487L6.57617 114.887ZM20.8654 114.482L20.6731 115.258L21.9709 115.58L21.6406 114.284L20.8654 114.482ZM21.1915 100.22L20.7915 99.5272L21.1915 100.22ZM33.0627 106.343L32.5164 106.927L33.445 107.795L33.8259 106.583L33.0627 106.343ZM48.2102 108.012C47.2753 104.76 46.1189 101.633 44.799 99.303C44.1399 98.1391 43.4194 97.1364 42.6357 96.4154C41.8529 95.6952 40.9433 95.2 39.9277 95.2V96.8C40.3974 96.8 40.9377 97.0274 41.5524 97.5929C42.1662 98.1576 42.7906 99.0034 43.4068 100.091C44.6375 102.265 45.7528 105.255 46.6725 108.454L48.2102 108.012ZM61.5915 99.4551C60.6374 98.9043 59.5036 98.9214 58.3764 99.2239C57.244 99.5277 56.0123 100.145 54.7522 100.952C52.2277 102.568 49.4389 105.04 46.8688 107.675L48.014 108.792C50.5454 106.197 53.2369 103.822 55.6148 102.3C56.8059 101.537 57.8808 101.013 58.791 100.769C59.7062 100.524 60.3509 100.586 60.7915 100.841L61.5915 99.4551ZM62.374 114.629C63.1845 111.356 63.7402 108.084 63.7589 105.418C63.7682 104.087 63.6444 102.864 63.3258 101.852C63.0076 100.841 62.4682 99.9613 61.5915 99.4551L60.7915 100.841C61.1969 101.075 61.5502 101.54 61.7997 102.332C62.0489 103.124 62.1677 104.163 62.1589 105.407C62.1415 107.892 61.6182 111.024 60.8209 114.244L62.374 114.629ZM76.5502 114.363C76.0434 113.485 75.1632 112.947 74.1522 112.633C73.1407 112.319 71.9189 112.201 70.5898 112.218C67.9283 112.252 64.664 112.829 61.3999 113.661L61.7951 115.212C65.0059 114.393 68.1308 113.85 70.6102 113.818C71.8515 113.802 72.888 113.916 73.6774 114.161C74.4673 114.407 74.9307 114.758 75.1646 115.163L76.5502 114.363ZM68.4041 129.149C71.0214 126.559 73.4753 123.752 75.0772 121.215C75.8768 119.949 76.4882 118.713 76.7876 117.578C77.0855 116.449 77.1 115.315 76.5502 114.363L75.1646 115.163C75.419 115.604 75.4831 116.251 75.2405 117.17C74.9994 118.084 74.4804 119.164 73.7243 120.361C72.2149 122.751 69.8566 125.46 67.2787 128.011L68.4041 129.149ZM80.8 136.072C80.8 135.06 80.3085 134.154 79.593 133.373C78.8768 132.592 77.8806 131.873 76.7241 131.216C74.4084 129.9 71.3005 128.746 68.0633 127.811L67.6195 129.348C70.8039 130.268 73.7753 131.38 75.9335 132.607C77.014 133.221 77.8534 133.843 78.4135 134.454C78.9743 135.066 79.2 135.604 79.2 136.072H80.8ZM69.8994 143.699C72.7502 142.804 75.4071 141.733 77.3679 140.523C78.3479 139.918 79.1885 139.258 79.7917 138.538C80.3969 137.816 80.8 136.987 80.8 136.072H79.2C79.2 136.495 79.0165 136.972 78.5653 137.51C78.1122 138.051 77.4267 138.607 76.5275 139.161C74.7301 140.271 72.2168 141.294 69.4198 142.173L69.8994 143.699ZM76.5502 155.287C77.0345 154.449 77.0803 153.467 76.8825 152.48C76.6848 151.493 76.2311 150.428 75.6174 149.338C74.3889 147.156 72.4361 144.727 70.2432 142.389L69.0761 143.483C71.2312 145.782 73.0856 148.102 74.2231 150.123C74.7924 151.134 75.1615 152.035 75.3136 152.794C75.4657 153.553 75.3886 154.099 75.1646 154.487L76.5502 155.287ZM61.3999 155.989C64.664 156.821 67.9283 157.398 70.5898 157.432C71.9189 157.449 73.1407 157.331 74.1522 157.017C75.1632 156.703 76.0434 156.165 76.5502 155.287L75.1646 154.487C74.9307 154.893 74.4673 155.244 73.6774 155.489C72.888 155.734 71.8515 155.848 70.6102 155.832C68.1308 155.8 65.0059 155.257 61.7951 154.439L61.3999 155.989ZM61.5915 170.195C62.4682 169.689 63.0076 168.809 63.3258 167.798C63.6444 166.787 63.7682 165.563 63.7589 164.232C63.7402 161.566 63.1845 158.295 62.374 155.022L60.8209 155.406C61.6182 158.626 62.1415 161.758 62.1589 164.243C62.1677 165.487 62.0489 166.526 61.7997 167.318C61.5502 168.11 61.1969 168.575 60.7915 168.809L61.5915 170.195ZM47.3765 162.491C49.8854 165.013 52.5727 167.345 55.0003 168.855C56.2122 169.608 57.3967 170.181 58.4883 170.455C59.5769 170.729 60.6684 170.728 61.5915 170.195L60.7915 168.809C60.3654 169.055 59.7488 169.122 58.8784 168.904C58.011 168.686 56.9857 168.205 55.8453 167.496C53.5682 166.08 50.9808 163.845 48.5108 161.363L47.3765 162.491ZM39.9277 176.8C41.0388 176.8 42.0223 176.208 42.8574 175.371C43.6972 174.53 44.468 173.362 45.1698 172.014C46.5757 169.313 47.7851 165.729 48.7181 162.127L47.1692 161.726C46.2502 165.274 45.0769 168.727 43.7505 171.275C43.0861 172.551 42.4035 173.561 41.7248 174.241C41.0416 174.926 40.442 175.2 39.9277 175.2V176.8ZM31.7447 164.03C32.6562 167.273 33.7889 170.388 35.0902 172.71C35.7401 173.87 36.4527 174.869 37.2307 175.588C38.0083 176.307 38.914 176.8 39.9277 176.8V175.2C39.4599 175.2 38.9241 174.974 38.3165 174.413C37.7093 173.852 37.0929 173.011 36.486 171.928C35.2737 169.765 34.1816 166.787 33.285 163.597L31.7447 164.03ZM20.7915 170.123C21.5924 170.585 22.5238 170.648 23.4646 170.481C24.4032 170.314 25.4125 169.909 26.4451 169.353C28.5114 168.241 30.8123 166.449 33.054 164.404L31.9757 163.222C29.7754 165.229 27.5861 166.922 25.687 167.944C24.7369 168.455 23.8946 168.779 23.1845 168.905C22.4766 169.031 21.9621 168.951 21.5915 168.737L20.7915 170.123ZM20.0902 154.971C19.258 158.235 18.6811 161.5 18.6471 164.162C18.63 165.491 18.7474 166.713 19.0617 167.725C19.3759 168.736 19.9135 169.616 20.7915 170.123L21.5915 168.737C21.1863 168.503 20.8352 168.04 20.5897 167.25C20.3443 166.46 20.231 165.424 20.2469 164.182C20.2787 161.703 20.822 158.577 21.6406 155.366L20.0902 154.971ZM5.88335 155.163C6.38951 156.039 7.26926 156.579 8.28016 156.897C9.29205 157.216 10.5152 157.34 11.8467 157.33C14.5129 157.311 17.7846 156.756 21.0577 155.945L20.6731 154.392C17.4533 155.189 14.3205 155.713 11.8355 155.73C10.5913 155.739 9.55217 155.62 8.76057 155.371C7.96797 155.122 7.50307 154.768 7.26899 154.363L5.88335 155.163ZM11.6491 142.956C9.59226 145.18 7.78854 147.466 6.66807 149.522C6.10812 150.549 5.699 151.555 5.52936 152.491C5.35923 153.43 5.42049 154.361 5.88335 155.163L7.26899 154.363C7.05521 153.993 6.97624 153.48 7.10374 152.776C7.23172 152.07 7.5581 151.232 8.07295 150.288C9.10207 148.4 10.8052 146.225 12.8239 144.042L11.6491 142.956ZM-0.8 136.072C-0.8 137.088 -0.303994 137.996 0.417569 138.775C1.13961 139.555 2.14349 140.269 3.30796 140.92C5.63981 142.223 8.7676 143.358 12.0206 144.269L12.4524 142.729C9.25232 141.832 6.26186 140.738 4.08873 139.523C3.00071 138.915 2.15542 138.297 1.59141 137.688C1.02692 137.078 0.8 136.541 0.8 136.072H-0.8ZM13.8717 127.282C10.2704 128.215 6.68687 129.424 3.98598 130.83C2.63787 131.532 1.46992 132.303 0.628419 133.142C-0.208494 133.978 -0.8 134.961 -0.8 136.072H0.8C0.8 135.558 1.07393 134.958 1.75857 134.275C2.43863 133.596 3.44835 132.914 4.72473 132.249C7.27281 130.923 10.7255 129.75 14.273 128.831L13.8717 127.282ZM5.88335 114.487C5.35322 115.406 5.34945 116.491 5.61863 117.573C5.8885 118.658 6.4541 119.836 7.19969 121.04C8.69314 123.452 11.0034 126.124 13.5073 128.623L14.6375 127.49C12.1726 125.03 9.96 122.459 8.56011 120.198C7.85904 119.065 7.38537 118.048 7.17134 117.187C6.95661 116.323 7.02431 115.711 7.26899 115.287L5.88335 114.487ZM21.0577 113.705C17.7846 112.895 14.5129 112.339 11.8467 112.32C10.5152 112.311 9.29205 112.434 8.28016 112.753C7.26926 113.071 6.38951 113.611 5.88335 114.487L7.26899 115.287C7.50307 114.882 7.96797 114.529 8.76057 114.279C9.55217 114.03 10.5913 113.911 11.8355 113.92C14.3205 113.937 17.4533 114.461 20.6731 115.258L21.0577 113.705ZM20.7915 99.5272C19.9135 100.034 19.3759 100.914 19.0617 101.925C18.7474 102.937 18.63 104.159 18.6471 105.488C18.6811 108.15 19.258 111.415 20.0902 114.679L21.6406 114.284C20.822 111.073 20.2787 107.948 20.2469 105.468C20.231 104.226 20.3443 103.19 20.5897 102.4C20.8352 101.61 21.1863 101.147 21.5915 100.913L20.7915 99.5272ZM33.6089 105.758C31.2825 103.584 28.8704 101.652 26.703 100.439C25.6202 99.8326 24.5625 99.3852 23.5819 99.1915C22.6003 98.9976 21.6255 99.0457 20.7915 99.5272L21.5915 100.913C21.9772 100.69 22.5196 100.613 23.2718 100.761C24.0251 100.91 24.9179 101.273 25.9214 101.835C27.9266 102.957 30.2304 104.791 32.5164 106.927L33.6089 105.758ZM39.9277 95.2C39.0124 95.2 38.1839 95.6032 37.4616 96.2086C36.7416 96.8119 36.0811 97.6528 35.4762 98.633C34.2659 100.594 33.1952 103.252 32.2995 106.103L33.8259 106.583C34.7047 103.785 35.7283 101.271 36.8378 99.4733C37.3928 98.5739 37.9484 97.8881 38.4893 97.4349C39.0279 96.9835 39.5049 96.8 39.9277 96.8V95.2Z" fill="#F7CA87" mask="url(#path-6-inside-2_2549_10932)"/>
<circle cx="39" cy="135" r="15" fill="#F7CA87"/>
<path fillRule="evenodd" clipRule="evenodd" d="M133.144 111.318V113.183L127.215 107.991C125.553 106.535 123.026 106.703 121.571 108.365C120.115 110.027 120.283 112.554 121.945 114.009L133.144 123.817V131.67L125.311 127.709C125.287 127.57 125.254 127.432 125.213 127.295L121.033 113.635C120.425 111.647 118.12 110.574 115.885 111.24C113.65 111.905 112.331 114.056 112.939 116.044L114.897 122.444L112.95 121.459C112.926 121.32 112.893 121.182 112.851 121.046L110.761 114.216C110.153 112.227 107.848 111.155 105.613 111.82C103.533 112.44 102.246 114.347 102.569 116.211L101.439 115.64C99.4678 114.643 96.8839 115.33 95.6679 117.174C94.452 119.019 95.0644 121.322 97.0359 122.319L97.3194 122.462C96.8651 123.241 96.6908 124.147 96.8943 125.045C97.3538 127.073 99.5668 128.285 101.837 127.752L105.897 126.799L107.811 127.767L104.735 128.489C102.464 129.021 100.997 131.097 101.456 133.125C101.916 135.152 104.129 136.364 106.399 135.832L118.258 133.049L127.192 137.566L122.456 139.961C122.306 139.909 122.153 139.865 121.997 139.828L106.398 136.168C104.128 135.635 101.915 136.847 101.455 138.875C100.996 140.903 102.464 142.978 104.734 143.511L112.042 145.226L110.093 146.211C109.944 146.16 109.791 146.115 109.635 146.079L101.836 144.249C99.5654 143.716 97.3525 144.928 96.8929 146.956C96.4651 148.843 97.7075 150.772 99.7125 151.46L98.5839 152.03C96.6124 153.027 95.9999 155.33 97.2159 157.174C98.4319 159.019 101.016 159.706 102.987 158.709L103.27 158.566C103.813 159.3 104.622 159.886 105.612 160.18C107.847 160.846 110.152 159.773 110.76 157.785L111.848 154.229L113.763 153.261L112.938 155.955C112.33 157.944 113.649 160.095 115.884 160.76C118.119 161.425 120.424 160.353 121.032 158.365L124.21 147.979L133.144 143.462V148.183L121.945 157.991C120.283 159.446 120.115 161.973 121.571 163.635C123.026 165.297 125.553 165.465 127.215 164.009L133.144 158.817V160.682L127.654 165.491C125.992 166.946 125.824 169.473 127.28 171.135C128.735 172.797 131.262 172.965 132.924 171.509L133.144 171.316V172C133.144 174.209 134.935 176 137.144 176C139.199 176 140.892 174.451 141.118 172.457C142.419 172.649 143.787 172.198 144.717 171.135C146.173 169.473 146.005 166.946 144.343 165.491L141.144 162.689V160.823L144.783 164.009C146.445 165.465 148.972 165.297 150.427 163.635C151.883 161.973 151.715 159.446 150.053 157.991L141.144 150.189V144.62L147.79 147.98L150.967 158.365C151.576 160.353 153.881 161.425 156.116 160.76C158.351 160.095 159.669 157.944 159.061 155.955L158.237 153.262L160.149 154.229L161.237 157.785C161.846 159.773 164.151 160.846 166.386 160.18C167.375 159.886 168.185 159.3 168.728 158.566L169.011 158.709C170.982 159.706 173.566 159.019 174.782 157.174C175.998 155.33 175.386 153.027 173.414 152.03L172.285 151.459C174.29 150.772 175.532 148.843 175.105 146.956C174.645 144.928 172.432 143.716 170.162 144.249L162.362 146.079C162.207 146.115 162.054 146.159 161.905 146.211L159.957 145.226L167.265 143.511C169.536 142.978 171.004 140.903 170.544 138.875C170.084 136.847 167.871 135.635 165.601 136.168L150.002 139.828C149.846 139.865 149.693 139.909 149.543 139.961L144.806 137.566L153.74 133.049L165.6 135.832C167.871 136.364 170.084 135.152 170.543 133.125C171.003 131.097 169.535 129.021 167.265 128.489L164.187 127.767L166.101 126.799L170.162 127.752C172.433 128.285 174.646 127.073 175.105 125.045C175.309 124.147 175.134 123.24 174.68 122.462L174.962 122.319C176.934 121.322 177.546 119.019 176.33 117.174C175.114 115.33 172.53 114.643 170.559 115.64L169.431 116.21C169.753 114.346 168.467 112.44 166.386 111.82C164.151 111.155 161.846 112.227 161.238 114.216L159.148 121.046C159.106 121.182 159.074 121.32 159.05 121.459L157.102 122.443L159.06 116.044C159.669 114.056 158.35 111.905 156.115 111.24C153.88 110.574 151.575 111.647 150.967 113.635L146.787 127.295C146.745 127.431 146.712 127.57 146.688 127.709L141.144 130.512V121.811L150.053 114.009C151.715 112.554 151.883 110.027 150.427 108.365C148.972 106.703 146.445 106.535 144.783 107.991L141.144 111.177V109.311L144.343 106.509C146.005 105.054 146.173 102.527 144.717 100.865C143.787 99.8024 142.419 99.3507 141.118 99.5432C140.892 97.5492 139.199 96 137.144 96C134.935 96 133.144 97.7909 133.144 100V100.684L132.924 100.491C131.262 99.0354 128.735 99.2028 127.28 100.865C125.824 102.527 125.992 105.054 127.654 106.509L133.144 111.318Z" fill="#96C9F8"/>
<path d="M133.144 113.183L132.881 113.484C132.999 113.587 133.167 113.612 133.309 113.547C133.452 113.483 133.544 113.34 133.544 113.183H133.144ZM133.144 111.318H133.544C133.544 111.202 133.495 111.093 133.408 111.017L133.144 111.318ZM127.215 107.991L127.479 107.69L127.215 107.991ZM121.571 108.365L121.27 108.101L121.27 108.101L121.571 108.365ZM121.945 114.009L122.208 113.708L121.945 114.009ZM133.144 123.817H133.544C133.544 123.702 133.495 123.592 133.408 123.516L133.144 123.817ZM133.144 131.67L132.964 132.027C133.088 132.089 133.235 132.083 133.354 132.01C133.472 131.938 133.544 131.809 133.544 131.67H133.144ZM125.311 127.709L124.917 127.777C124.938 127.902 125.018 128.009 125.131 128.066L125.311 127.709ZM125.213 127.295L124.83 127.412L124.83 127.412L125.213 127.295ZM121.033 113.635L121.415 113.518L121.033 113.635ZM115.885 111.24L115.999 111.623L115.885 111.24ZM112.939 116.044L113.322 115.927L112.939 116.044ZM114.897 122.444L114.717 122.801C114.86 122.873 115.032 122.853 115.155 122.75C115.278 122.647 115.327 122.48 115.28 122.327L114.897 122.444ZM112.95 121.459L112.555 121.527C112.577 121.652 112.656 121.759 112.769 121.816L112.95 121.459ZM112.851 121.046L113.234 120.929V120.929L112.851 121.046ZM110.761 114.216L111.144 114.098L110.761 114.216ZM105.613 111.82L105.727 112.204H105.727L105.613 111.82ZM102.569 116.211L102.388 116.568C102.523 116.636 102.685 116.622 102.807 116.532C102.928 116.442 102.989 116.292 102.963 116.143L102.569 116.211ZM101.439 115.64L101.259 115.997L101.439 115.64ZM95.6679 117.174L96.0019 117.395H96.0019L95.6679 117.174ZM97.0359 122.319L96.8554 122.676L96.8554 122.676L97.0359 122.319ZM97.3194 122.462L97.6648 122.664C97.7204 122.569 97.7342 122.455 97.703 122.349C97.6718 122.243 97.5983 122.155 97.4999 122.105L97.3194 122.462ZM96.8943 125.045L97.2844 124.957L97.2844 124.957L96.8943 125.045ZM101.837 127.752L101.746 127.362H101.746L101.837 127.752ZM105.897 126.799L106.078 126.442C105.994 126.4 105.898 126.388 105.806 126.41L105.897 126.799ZM107.811 127.767L107.903 128.156C108.066 128.118 108.188 127.981 108.208 127.814C108.228 127.647 108.142 127.486 107.992 127.41L107.811 127.767ZM104.735 128.489L104.643 128.099L104.735 128.489ZM101.456 133.125L101.846 133.036H101.846L101.456 133.125ZM106.399 135.832L106.49 136.221L106.399 135.832ZM118.258 133.049L118.439 132.692C118.355 132.649 118.258 132.638 118.167 132.659L118.258 133.049ZM127.192 137.566L127.373 137.923C127.507 137.855 127.592 137.717 127.592 137.566C127.592 137.415 127.507 137.277 127.373 137.209L127.192 137.566ZM122.456 139.961L122.325 140.339C122.428 140.374 122.54 140.366 122.636 140.318L122.456 139.961ZM121.997 139.828L122.088 139.439H122.088L121.997 139.828ZM106.398 136.168L106.49 135.779L106.398 136.168ZM101.455 138.875L101.846 138.963H101.846L101.455 138.875ZM104.734 143.511L104.825 143.122L104.734 143.511ZM112.042 145.226L112.222 145.583C112.372 145.507 112.459 145.345 112.439 145.178C112.419 145.011 112.297 144.875 112.133 144.836L112.042 145.226ZM110.093 146.211L109.963 146.589C110.065 146.624 110.177 146.617 110.274 146.568L110.093 146.211ZM109.635 146.079L109.544 146.468H109.544L109.635 146.079ZM101.836 144.249L101.927 143.859H101.927L101.836 144.249ZM96.8929 146.956L97.283 147.044H97.283L96.8929 146.956ZM99.7125 151.46L99.893 151.816C100.037 151.744 100.123 151.592 100.112 151.432C100.1 151.272 99.9944 151.133 99.8422 151.081L99.7125 151.46ZM98.5839 152.03L98.4034 151.673H98.4034L98.5839 152.03ZM97.2159 157.174L97.5498 156.954L97.2159 157.174ZM102.987 158.709L103.168 159.066L102.987 158.709ZM103.27 158.566L103.592 158.328C103.476 158.172 103.264 158.121 103.089 158.209L103.27 158.566ZM105.612 160.18L105.726 159.797L105.612 160.18ZM110.76 157.785L111.143 157.902L110.76 157.785ZM111.848 154.229L111.668 153.872C111.57 153.921 111.497 154.008 111.466 154.112L111.848 154.229ZM113.763 153.261L114.145 153.378C114.192 153.225 114.143 153.058 114.02 152.955C113.898 152.852 113.725 152.832 113.582 152.904L113.763 153.261ZM112.938 155.955L113.321 156.072L112.938 155.955ZM115.884 160.76L115.77 161.143L115.884 160.76ZM121.032 158.365L121.415 158.482L121.032 158.365ZM124.21 147.979L124.029 147.622C123.932 147.671 123.859 147.758 123.827 147.862L124.21 147.979ZM133.144 143.462H133.544C133.544 143.323 133.472 143.194 133.354 143.121C133.235 143.048 133.088 143.042 132.964 143.105L133.144 143.462ZM133.144 148.183L133.408 148.484C133.495 148.408 133.544 148.298 133.544 148.183H133.144ZM121.945 157.991L121.681 157.69L121.945 157.991ZM121.571 163.635L121.27 163.899H121.27L121.571 163.635ZM127.215 164.009L126.952 163.708L127.215 164.009ZM133.144 158.817H133.544C133.544 158.66 133.452 158.517 133.309 158.453C133.167 158.388 132.999 158.413 132.881 158.516L133.144 158.817ZM133.144 160.682L133.408 160.983C133.495 160.907 133.544 160.798 133.544 160.682H133.144ZM127.654 165.491L127.39 165.19L127.654 165.491ZM127.28 171.135L126.979 171.399H126.979L127.28 171.135ZM132.924 171.509L132.661 171.208L132.924 171.509ZM133.144 171.316H133.544C133.544 171.159 133.452 171.017 133.309 170.952C133.167 170.887 132.999 170.912 132.881 171.015L133.144 171.316ZM133.144 172H133.544H133.144ZM141.118 172.457L141.177 172.061C141.07 172.045 140.961 172.074 140.875 172.14C140.789 172.206 140.733 172.304 140.721 172.412L141.118 172.457ZM144.717 171.135L145.018 171.399L144.717 171.135ZM144.343 165.491L144.607 165.19L144.343 165.491ZM141.144 162.689H140.744C140.744 162.805 140.794 162.914 140.881 162.99L141.144 162.689ZM141.144 160.823L141.408 160.522C141.29 160.418 141.122 160.394 140.979 160.458C140.836 160.523 140.744 160.666 140.744 160.823H141.144ZM144.783 164.009L145.046 163.708L144.783 164.009ZM150.427 163.635L150.728 163.899L150.427 163.635ZM150.053 157.991L150.317 157.69L150.053 157.991ZM141.144 150.189H140.744C140.744 150.304 140.794 150.414 140.881 150.49L141.144 150.189ZM141.144 144.62L141.325 144.263C141.201 144.2 141.053 144.206 140.935 144.279C140.816 144.352 140.744 144.481 140.744 144.62H141.144ZM147.79 147.98L148.172 147.863C148.14 147.759 148.067 147.672 147.97 147.623L147.79 147.98ZM150.967 158.365L150.585 158.482L150.967 158.365ZM156.116 160.76L156.23 161.143H156.23L156.116 160.76ZM159.061 155.955L159.443 155.838L159.061 155.955ZM158.237 153.262L158.417 152.905C158.274 152.833 158.102 152.853 157.979 152.956C157.857 153.059 157.807 153.226 157.854 153.379L158.237 153.262ZM160.149 154.229L160.532 154.112C160.5 154.008 160.427 153.921 160.33 153.872L160.149 154.229ZM161.237 157.785L161.62 157.668L161.237 157.785ZM166.386 160.18L166.5 160.564L166.386 160.18ZM168.728 158.566L168.908 158.209C168.734 158.121 168.522 158.171 168.406 158.328L168.728 158.566ZM169.011 158.709L169.191 158.352L169.011 158.709ZM174.782 157.174L174.448 156.954L174.782 157.174ZM173.414 152.03L173.234 152.387L173.414 152.03ZM172.285 151.459L172.156 151.081C172.004 151.133 171.897 151.271 171.886 151.432C171.875 151.592 171.961 151.744 172.105 151.816L172.285 151.459ZM175.105 146.956L175.495 146.867L175.105 146.956ZM170.162 144.249L170.253 144.638L170.162 144.249ZM162.362 146.079L162.271 145.689L162.362 146.079ZM161.905 146.211L161.724 146.568C161.821 146.617 161.933 146.624 162.035 146.589L161.905 146.211ZM159.957 145.226L159.865 144.837C159.702 144.875 159.579 145.012 159.56 145.179C159.54 145.346 159.626 145.507 159.776 145.583L159.957 145.226ZM167.265 143.511L167.357 143.9L167.265 143.511ZM170.544 138.875L170.934 138.787L170.544 138.875ZM165.601 136.168L165.51 135.779L165.601 136.168ZM150.002 139.828L150.094 140.218H150.094L150.002 139.828ZM149.543 139.961L149.363 140.318C149.459 140.367 149.571 140.374 149.673 140.339L149.543 139.961ZM144.806 137.566L144.625 137.209C144.491 137.277 144.406 137.415 144.406 137.566C144.406 137.717 144.491 137.855 144.625 137.923L144.806 137.566ZM153.74 133.049L153.832 132.659C153.74 132.638 153.644 132.649 153.56 132.692L153.74 133.049ZM165.6 135.832L165.692 135.442L165.6 135.832ZM170.543 133.125L170.153 133.036L170.543 133.125ZM167.265 128.489L167.173 128.878L167.265 128.489ZM164.187 127.767L164.007 127.41C163.857 127.485 163.77 127.647 163.79 127.814C163.81 127.981 163.932 128.118 164.096 128.156L164.187 127.767ZM166.101 126.799L166.193 126.41C166.101 126.388 166.005 126.4 165.921 126.442L166.101 126.799ZM170.162 127.752L170.071 128.141L170.162 127.752ZM175.105 125.045L174.715 124.957V124.957L175.105 125.045ZM174.68 122.462L174.499 122.105C174.401 122.155 174.327 122.243 174.296 122.348C174.265 122.454 174.279 122.568 174.334 122.663L174.68 122.462ZM174.962 122.319L175.143 122.676V122.676L174.962 122.319ZM170.559 115.64L170.378 115.283L170.559 115.64ZM169.431 116.21L169.037 116.142C169.011 116.291 169.071 116.442 169.193 116.532C169.314 116.622 169.476 116.635 169.611 116.567L169.431 116.21ZM166.386 111.82L166.5 111.437L166.386 111.82ZM161.238 114.216L161.621 114.333L161.238 114.216ZM159.148 121.046L158.766 120.929V120.929L159.148 121.046ZM159.05 121.459L159.23 121.816C159.343 121.759 159.423 121.651 159.444 121.527L159.05 121.459ZM157.102 122.443L156.72 122.326C156.673 122.48 156.722 122.646 156.845 122.749C156.967 122.853 157.14 122.873 157.283 122.8L157.102 122.443ZM159.06 116.044L158.678 115.927L159.06 116.044ZM150.967 113.635L150.584 113.518L150.967 113.635ZM146.787 127.295L146.404 127.178L146.404 127.178L146.787 127.295ZM146.688 127.709L146.869 128.066C146.982 128.008 147.061 127.901 147.083 127.776L146.688 127.709ZM141.144 130.512H140.744C140.744 130.651 140.816 130.78 140.935 130.852C141.053 130.925 141.201 130.931 141.325 130.869L141.144 130.512ZM141.144 121.811L140.881 121.51C140.794 121.586 140.744 121.696 140.744 121.811H141.144ZM150.053 114.009L150.317 114.31L150.053 114.009ZM150.427 108.365L150.728 108.101V108.101L150.427 108.365ZM144.783 107.991L145.046 108.292L144.783 107.991ZM141.144 111.177H140.744C140.744 111.334 140.836 111.477 140.979 111.542C141.122 111.606 141.29 111.582 141.408 111.478L141.144 111.177ZM141.144 109.311L140.881 109.01C140.794 109.086 140.744 109.195 140.744 109.311H141.144ZM144.343 106.509L144.607 106.81L144.343 106.509ZM144.717 100.865L145.018 100.601V100.601L144.717 100.865ZM141.118 99.5432L140.721 99.5884C140.733 99.6961 140.789 99.7943 140.875 99.8603C140.961 99.9264 141.07 99.9548 141.177 99.9389L141.118 99.5432ZM133.144 100.684L132.881 100.985C132.999 101.088 133.167 101.113 133.309 101.048C133.452 100.983 133.544 100.841 133.544 100.684H133.144ZM132.924 100.491L133.188 100.19L133.188 100.19L132.924 100.491ZM127.28 100.865L127.581 101.128V101.128L127.28 100.865ZM127.654 106.509L127.917 106.208L127.654 106.509ZM133.544 113.183V111.318H132.744V113.183H133.544ZM126.952 108.292L132.881 113.484L133.408 112.882L127.479 107.69L126.952 108.292ZM121.872 108.628C123.181 107.133 125.456 106.982 126.952 108.292L127.479 107.69C125.65 106.089 122.871 106.273 121.27 108.101L121.872 108.628ZM122.208 113.708C120.712 112.398 120.562 110.124 121.872 108.628L121.27 108.101C119.669 109.929 119.853 112.709 121.681 114.31L122.208 113.708ZM133.408 123.516L122.208 113.708L121.681 114.31L132.881 124.118L133.408 123.516ZM133.544 131.67V123.817H132.744V131.67H133.544ZM125.131 128.066L132.964 132.027L133.325 131.313L125.492 127.352L125.131 128.066ZM124.83 127.412C124.867 127.532 124.896 127.654 124.917 127.777L125.705 127.642C125.679 127.486 125.642 127.331 125.595 127.178L124.83 127.412ZM120.65 113.752L124.83 127.412L125.595 127.178L121.415 113.518L120.65 113.752ZM115.999 111.623C118.065 111.008 120.118 112.014 120.65 113.752L121.415 113.518C120.731 111.28 118.174 110.141 115.77 110.856L115.999 111.623ZM113.322 115.927C112.791 114.192 113.934 112.238 115.999 111.623L115.77 110.856C113.366 111.572 111.871 113.92 112.557 116.161L113.322 115.927ZM115.28 122.327L113.322 115.927L112.557 116.161L114.515 122.561L115.28 122.327ZM112.769 121.816L114.717 122.801L115.078 122.087L113.13 121.102L112.769 121.816ZM112.469 121.163C112.506 121.283 112.534 121.404 112.555 121.527L113.344 121.392C113.317 121.236 113.28 121.081 113.234 120.929L112.469 121.163ZM110.379 114.333L112.469 121.163L113.234 120.929L111.144 114.098L110.379 114.333ZM105.727 112.204C107.794 111.589 109.847 112.594 110.379 114.333L111.144 114.098C110.459 111.861 107.902 110.721 105.499 111.437L105.727 112.204ZM102.963 116.143C102.68 114.51 103.808 112.775 105.727 112.204L105.499 111.437C103.257 112.104 101.812 114.183 102.175 116.279L102.963 116.143ZM101.259 115.997L102.388 116.568L102.749 115.854L101.62 115.283L101.259 115.997ZM96.0019 117.395C97.106 115.72 99.4687 115.092 101.259 115.997L101.62 115.283C99.467 114.194 96.6618 114.94 95.334 116.954L96.0019 117.395ZM97.2164 121.962C95.4583 121.073 94.9175 119.039 96.0019 117.395L95.334 116.954C93.9864 118.998 94.6706 121.571 96.8554 122.676L97.2164 121.962ZM97.4999 122.105L97.2164 121.962L96.8554 122.676L97.1389 122.819L97.4999 122.105ZM97.2844 124.957C97.1055 124.167 97.2565 123.363 97.6648 122.664L96.9739 122.261C96.4736 123.118 96.2762 124.128 96.5042 125.133L97.2844 124.957ZM101.746 127.362C99.6479 127.855 97.6855 126.726 97.2844 124.957L96.5042 125.133C97.0222 127.419 99.4856 128.714 101.928 128.141L101.746 127.362ZM105.806 126.41L101.746 127.362L101.928 128.141L105.989 127.189L105.806 126.41ZM107.992 127.41L106.078 126.442L105.717 127.156L107.631 128.124L107.992 127.41ZM104.826 128.878L107.903 128.156L107.72 127.377L104.643 128.099L104.826 128.878ZM101.846 133.036C101.444 131.263 102.727 129.371 104.826 128.878L104.643 128.099C102.202 128.672 100.549 130.931 101.066 133.213L101.846 133.036ZM106.308 135.442C104.21 135.934 102.247 134.806 101.846 133.036L101.066 133.213C101.584 135.499 104.048 136.794 106.49 136.221L106.308 135.442ZM118.167 132.659L106.308 135.442L106.49 136.221L118.35 133.438L118.167 132.659ZM127.373 137.209L118.439 132.692L118.078 133.406L127.012 137.923L127.373 137.209ZM122.636 140.318L127.373 137.923L127.012 137.209L122.275 139.604L122.636 140.318ZM121.906 140.218C122.048 140.251 122.188 140.292 122.325 140.339L122.586 139.582C122.423 139.527 122.257 139.479 122.088 139.439L121.906 140.218ZM106.307 136.558L121.906 140.218L122.088 139.439L106.49 135.779L106.307 136.558ZM101.846 138.963C102.247 137.194 104.209 136.065 106.307 136.558L106.49 135.779C104.047 135.206 101.583 136.501 101.065 138.787L101.846 138.963ZM104.825 143.122C102.726 142.629 101.444 140.736 101.846 138.963L101.065 138.787C100.548 141.069 102.201 143.328 104.643 143.9L104.825 143.122ZM112.133 144.836L104.825 143.122L104.643 143.9L111.95 145.615L112.133 144.836ZM110.274 146.568L112.222 145.583L111.861 144.869L109.913 145.854L110.274 146.568ZM109.544 146.468C109.686 146.502 109.826 146.542 109.963 146.589L110.223 145.833C110.061 145.777 109.895 145.729 109.727 145.689L109.544 146.468ZM101.744 144.638L109.544 146.468L109.727 145.689L101.927 143.859L101.744 144.638ZM97.283 147.044C97.6841 145.274 99.6466 144.146 101.744 144.638L101.927 143.859C99.4843 143.286 97.0208 144.582 96.5028 146.867L97.283 147.044ZM99.8422 151.081C97.9925 150.447 96.9088 148.695 97.283 147.044L96.5028 146.867C96.0215 148.991 97.4225 151.097 99.5828 151.838L99.8422 151.081ZM98.7643 152.387L99.893 151.816L99.532 151.103L98.4034 151.673L98.7643 152.387ZM97.5498 156.954C96.4655 155.31 97.0062 153.276 98.7643 152.387L98.4034 151.673C96.2186 152.778 95.5344 155.351 96.8819 157.395L97.5498 156.954ZM102.807 158.352C101.017 159.257 98.654 158.629 97.5498 156.954L96.8819 157.395C98.2097 159.409 101.015 160.155 103.168 159.066L102.807 158.352ZM103.089 158.209L102.807 158.352L103.168 159.066L103.45 158.923L103.089 158.209ZM105.726 159.797C104.818 159.527 104.082 158.991 103.592 158.328L102.948 158.804C103.543 159.609 104.426 160.245 105.498 160.564L105.726 159.797ZM110.378 157.668C109.846 159.406 107.792 160.412 105.726 159.797L105.498 160.564C107.901 161.279 110.458 160.14 111.143 157.902L110.378 157.668ZM111.466 154.112L110.378 157.668L111.143 157.902L112.231 154.346L111.466 154.112ZM113.582 152.904L111.668 153.872L112.029 154.586L113.943 153.618L113.582 152.904ZM113.321 156.072L114.145 153.378L113.38 153.144L112.556 155.838L113.321 156.072ZM115.998 160.377C113.933 159.762 112.79 157.808 113.321 156.072L112.556 155.838C111.87 158.079 113.365 160.427 115.77 161.143L115.998 160.377ZM120.65 158.248C120.118 159.986 118.064 160.992 115.998 160.377L115.77 161.143C118.173 161.859 120.73 160.72 121.415 158.482L120.65 158.248ZM123.827 147.862L120.65 158.248L121.415 158.482L124.592 148.096L123.827 147.862ZM132.964 143.105L124.029 147.622L124.39 148.336L133.325 143.819L132.964 143.105ZM133.544 148.183V143.462H132.744V148.183H133.544ZM122.208 158.292L133.408 148.484L132.881 147.882L121.681 157.69L122.208 158.292ZM121.872 163.372C120.562 161.876 120.712 159.602 122.208 158.292L121.681 157.69C119.853 159.291 119.669 162.071 121.27 163.899L121.872 163.372ZM126.952 163.708C125.456 165.018 123.181 164.867 121.872 163.372L121.27 163.899C122.871 165.727 125.65 165.911 127.479 164.31L126.952 163.708ZM132.881 158.516L126.952 163.708L127.479 164.31L133.408 159.118L132.881 158.516ZM133.544 160.682V158.817H132.744V160.682H133.544ZM127.917 165.792L133.408 160.983L132.881 160.382L127.39 165.19L127.917 165.792ZM127.581 170.872C126.271 169.376 126.421 167.102 127.917 165.792L127.39 165.19C125.562 166.791 125.378 169.571 126.979 171.399L127.581 170.872ZM132.661 171.208C131.165 172.518 128.89 172.367 127.581 170.872L126.979 171.399C128.58 173.227 131.359 173.411 133.188 171.81L132.661 171.208ZM132.881 171.015L132.661 171.208L133.188 171.81L133.408 171.617L132.881 171.015ZM133.544 172V171.316H132.744V172H133.544ZM137.144 175.6C135.156 175.6 133.544 173.988 133.544 172H132.744C132.744 174.43 134.714 176.4 137.144 176.4V175.6ZM140.721 172.412C140.517 174.206 138.993 175.6 137.144 175.6V176.4C139.405 176.4 141.267 174.696 141.516 172.502L140.721 172.412ZM144.416 170.872C143.579 171.828 142.348 172.235 141.177 172.061L141.06 172.852C142.489 173.064 143.995 172.568 145.018 171.399L144.416 170.872ZM144.08 165.792C145.575 167.102 145.726 169.376 144.416 170.872L145.018 171.399C146.619 169.571 146.435 166.791 144.607 165.19L144.08 165.792ZM140.881 162.99L144.08 165.792L144.607 165.19L141.408 162.388L140.881 162.99ZM140.744 160.823V162.689H141.544V160.823H140.744ZM145.046 163.708L141.408 160.522L140.881 161.124L144.519 164.31L145.046 163.708ZM150.127 163.372C148.817 164.867 146.542 165.018 145.046 163.708L144.519 164.31C146.348 165.911 149.127 165.727 150.728 163.899L150.127 163.372ZM149.79 158.292C151.286 159.602 151.436 161.876 150.127 163.372L150.728 163.899C152.329 162.071 152.145 159.291 150.317 157.69L149.79 158.292ZM140.881 150.49L149.79 158.292L150.317 157.69L141.408 149.888L140.881 150.49ZM140.744 144.62V150.189H141.544V144.62H140.744ZM147.97 147.623L141.325 144.263L140.964 144.977L147.609 148.337L147.97 147.623ZM151.35 158.248L148.172 147.863L147.407 148.097L150.585 158.482L151.35 158.248ZM156.001 160.377C153.935 160.992 151.882 159.986 151.35 158.248L150.585 158.482C151.27 160.72 153.826 161.859 156.23 161.143L156.001 160.377ZM158.678 156.072C159.209 157.808 158.067 159.762 156.001 160.377L156.23 161.143C158.635 160.427 160.129 158.079 159.443 155.838L158.678 156.072ZM157.854 153.379L158.678 156.072L159.443 155.838L158.619 153.145L157.854 153.379ZM160.33 153.872L158.417 152.905L158.056 153.619L159.969 154.586L160.33 153.872ZM161.62 157.668L160.532 154.112L159.767 154.346L160.855 157.902L161.62 157.668ZM166.272 159.797C164.205 160.412 162.152 159.406 161.62 157.668L160.855 157.902C161.54 160.14 164.096 161.279 166.5 160.564L166.272 159.797ZM168.406 158.328C167.916 158.991 167.179 159.527 166.272 159.797L166.5 160.564C167.571 160.245 168.454 159.609 169.049 158.804L168.406 158.328ZM169.191 158.352L168.908 158.209L168.547 158.923L168.83 159.066L169.191 158.352ZM174.448 156.954C173.344 158.629 170.982 159.257 169.191 158.352L168.83 159.066C170.983 160.155 173.788 159.409 175.116 157.395L174.448 156.954ZM173.234 152.387C174.992 153.276 175.533 155.31 174.448 156.954L175.116 157.395C176.464 155.351 175.78 152.778 173.595 151.673L173.234 152.387ZM172.105 151.816L173.234 152.387L173.595 151.673L172.466 151.102L172.105 151.816ZM174.714 147.044C175.089 148.695 174.005 150.447 172.156 151.081L172.415 151.838C174.575 151.097 175.976 148.991 175.495 146.867L174.714 147.044ZM170.253 144.638C172.351 144.146 174.313 145.274 174.714 147.044L175.495 146.867C174.977 144.582 172.513 143.286 170.07 143.859L170.253 144.638ZM162.454 146.468L170.253 144.638L170.07 143.859L162.271 145.689L162.454 146.468ZM162.035 146.589C162.171 146.542 162.311 146.502 162.454 146.468L162.271 145.689C162.102 145.729 161.937 145.777 161.775 145.833L162.035 146.589ZM159.776 145.583L161.724 146.568L162.085 145.854L160.137 144.869L159.776 145.583ZM167.174 143.122L159.865 144.837L160.048 145.615L167.357 143.9L167.174 143.122ZM170.154 138.963C170.556 140.736 169.273 142.629 167.174 143.122L167.357 143.9C169.798 143.328 171.451 141.069 170.934 138.787L170.154 138.963ZM165.693 136.558C167.79 136.065 169.753 137.194 170.154 138.963L170.934 138.787C170.416 136.501 167.953 135.206 165.51 135.779L165.693 136.558ZM150.094 140.218L165.693 136.558L165.51 135.779L149.911 139.439L150.094 140.218ZM149.673 140.339C149.81 140.292 149.951 140.251 150.094 140.218L149.911 139.439C149.742 139.479 149.576 139.527 149.413 139.583L149.673 140.339ZM144.625 137.923L149.363 140.318L149.724 139.604L144.986 137.209L144.625 137.923ZM153.56 132.692L144.625 137.209L144.986 137.923L153.921 133.406L153.56 132.692ZM165.692 135.442L153.832 132.659L153.649 133.438L165.509 136.221L165.692 135.442ZM170.153 133.036C169.752 134.806 167.79 135.934 165.692 135.442L165.509 136.221C167.952 136.794 170.415 135.499 170.933 133.213L170.153 133.036ZM167.173 128.878C169.272 129.371 170.555 131.263 170.153 133.036L170.933 133.213C171.451 130.931 169.797 128.672 167.356 128.099L167.173 128.878ZM164.096 128.156L167.173 128.878L167.356 128.099L164.279 127.377L164.096 128.156ZM165.921 126.442L164.007 127.41L164.368 128.124L166.282 127.156L165.921 126.442ZM170.254 127.362L166.193 126.41L166.01 127.188L170.071 128.141L170.254 127.362ZM174.715 124.957C174.314 126.726 172.352 127.855 170.254 127.362L170.071 128.141C172.514 128.714 174.977 127.419 175.495 125.133L174.715 124.957ZM174.334 122.663C174.743 123.363 174.894 124.167 174.715 124.957L175.495 125.133C175.723 124.127 175.526 123.117 175.025 122.26L174.334 122.663ZM174.782 121.962L174.499 122.105L174.86 122.819L175.143 122.676L174.782 121.962ZM175.996 117.395C177.081 119.039 176.54 121.073 174.782 121.962L175.143 122.676C177.328 121.571 178.012 118.998 176.664 116.954L175.996 117.395ZM170.739 115.997C172.53 115.092 174.892 115.72 175.996 117.395L176.664 116.954C175.336 114.94 172.531 114.194 170.378 115.283L170.739 115.997ZM169.611 116.567L170.739 115.997L170.378 115.283L169.25 115.853L169.611 116.567ZM166.272 112.204C168.192 112.775 169.319 114.51 169.037 116.142L169.825 116.278C170.187 114.182 168.742 112.104 166.5 111.437L166.272 112.204ZM161.621 114.333C162.152 112.594 164.206 111.589 166.272 112.204L166.5 111.437C164.097 110.721 161.54 111.861 160.856 114.098L161.621 114.333ZM159.531 121.163L161.621 114.333L160.856 114.098L158.766 120.929L159.531 121.163ZM159.444 121.527C159.465 121.404 159.494 121.283 159.531 121.163L158.766 120.929C158.719 121.081 158.682 121.235 158.656 121.391L159.444 121.527ZM157.283 122.8L159.23 121.816L158.869 121.102L156.922 122.086L157.283 122.8ZM158.678 115.927L156.72 122.326L157.485 122.56L159.443 116.161L158.678 115.927ZM156.001 111.623C158.066 112.238 159.209 114.192 158.678 115.927L159.443 116.161C160.128 113.92 158.634 111.572 156.229 110.856L156.001 111.623ZM151.349 113.752C151.881 112.014 153.934 111.008 156.001 111.623L156.229 110.856C153.825 110.141 151.269 111.28 150.584 113.518L151.349 113.752ZM147.169 127.412L151.349 113.752L150.584 113.518L146.404 127.178L147.169 127.412ZM147.083 127.776C147.104 127.654 147.133 127.532 147.169 127.412L146.404 127.178C146.358 127.331 146.321 127.485 146.294 127.641L147.083 127.776ZM141.325 130.869L146.869 128.066L146.508 127.352L140.964 130.155L141.325 130.869ZM140.744 121.811V130.512H141.544V121.811H140.744ZM149.79 113.708L140.881 121.51L141.408 122.112L150.317 114.31L149.79 113.708ZM150.127 108.628C151.436 110.124 151.286 112.398 149.79 113.708L150.317 114.31C152.145 112.709 152.329 109.929 150.728 108.101L150.127 108.628ZM145.046 108.292C146.542 106.982 148.817 107.133 150.127 108.628L150.728 108.101C149.127 106.273 146.348 106.089 144.519 107.69L145.046 108.292ZM141.408 111.478L145.046 108.292L144.519 107.69L140.881 110.876L141.408 111.478ZM140.744 109.311V111.177H141.544V109.311H140.744ZM144.08 106.208L140.881 109.01L141.408 109.612L144.607 106.81L144.08 106.208ZM144.416 101.128C145.726 102.624 145.575 104.898 144.08 106.208L144.607 106.81C146.435 105.209 146.619 102.429 145.018 100.601L144.416 101.128ZM141.177 99.9389C142.348 99.7655 143.579 100.172 144.416 101.128L145.018 100.601C143.995 99.4323 142.489 98.936 141.06 99.1475L141.177 99.9389ZM137.144 96.4C138.993 96.4 140.517 97.7942 140.721 99.5884L141.516 99.498C141.267 97.3042 139.405 95.6 137.144 95.6V96.4ZM133.544 100C133.544 98.0118 135.156 96.4 137.144 96.4V95.6C134.714 95.6 132.744 97.5699 132.744 100H133.544ZM133.544 100.684V100H132.744V100.684H133.544ZM132.661 100.792L132.881 100.985L133.408 100.383L133.188 100.19L132.661 100.792ZM127.581 101.128C128.89 99.6325 131.165 99.4818 132.661 100.792L133.188 100.19C131.359 98.5889 128.58 98.7731 126.979 100.601L127.581 101.128ZM127.917 106.208C126.421 104.898 126.271 102.624 127.581 101.128L126.979 100.601C125.378 102.429 125.562 105.209 127.39 106.81L127.917 106.208ZM133.408 111.017L127.917 106.208L127.39 106.81L132.881 111.618L133.408 111.017Z" fill="#F7CA87"/>
<circle cx="136" cy="136" r="15" fill="#F7CA87"/>
</svg>
