<svg width="282" height="50" viewBox="0 0 282 50" fill="none" xmlns="http://www.w3.org/2000/svg">
<g clip-path="url(#clip0_2502_11659)">
<rect y="0.00195312" width="50" height="50" rx="24.25" fill="#094986"/>
<mask id="path-3-inside-1_2502_11659" fill="white">
<path fill-rule="evenodd" clip-rule="evenodd" d="M35.1021 36.0051C32.5603 38.0719 29.2151 39.3269 25.5502 39.3269C21.5656 39.3269 17.9591 37.8434 15.3519 35.4461C14.5873 35.6292 13.7819 35.7269 12.9502 35.7269C7.97963 35.7269 3.9502 32.2348 3.9502 27.9269C3.9502 23.6861 7.85525 20.2358 12.7189 20.1295C15.1019 15.8541 19.9531 12.9269 25.5502 12.9269C31.6586 12.9269 36.8786 16.4133 38.9714 21.3337C39.097 21.3292 39.2233 21.3269 39.3502 21.3269C44.3208 21.3269 48.3502 24.8191 48.3502 29.1269C48.3502 33.4348 44.3208 36.9269 39.3502 36.9269C37.8139 36.9269 36.3674 36.5933 35.1021 36.0051Z"/>
</mask>
<path fill-rule="evenodd" clip-rule="evenodd" d="M35.1021 36.0051C32.5603 38.0719 29.2151 39.3269 25.5502 39.3269C21.5656 39.3269 17.9591 37.8434 15.3519 35.4461C14.5873 35.6292 13.7819 35.7269 12.9502 35.7269C7.97963 35.7269 3.9502 32.2348 3.9502 27.9269C3.9502 23.6861 7.85525 20.2358 12.7189 20.1295C15.1019 15.8541 19.9531 12.9269 25.5502 12.9269C31.6586 12.9269 36.8786 16.4133 38.9714 21.3337C39.097 21.3292 39.2233 21.3269 39.3502 21.3269C44.3208 21.3269 48.3502 24.8191 48.3502 29.1269C48.3502 33.4348 44.3208 36.9269 39.3502 36.9269C37.8139 36.9269 36.3674 36.5933 35.1021 36.0051Z" fill="#EDEDED"/>
<path d="M35.1021 36.0051L35.608 34.9169L34.9274 34.6005L34.345 35.074L35.1021 36.0051ZM15.3519 35.4461L16.1642 34.5628L15.6939 34.1304L15.0726 34.2791L15.3519 35.4461ZM12.7189 20.1295L12.7452 21.3292L13.4324 21.3142L13.7671 20.7137L12.7189 20.1295ZM38.9714 21.3337L37.8672 21.8034L38.19 22.5625L39.0145 22.533L38.9714 21.3337ZM25.5502 40.5269C29.4903 40.5269 33.103 39.1773 35.8592 36.9361L34.345 35.074C32.0176 36.9665 28.9399 38.1269 25.5502 38.1269V40.5269ZM14.5397 36.3295C17.3697 38.9317 21.2667 40.5269 25.5502 40.5269V38.1269C21.8646 38.1269 18.5484 36.7552 16.1642 34.5628L14.5397 36.3295ZM12.9502 36.9269C13.8761 36.9269 14.7752 36.8181 15.6313 36.6132L15.0726 34.2791C14.3994 34.4402 13.6878 34.5269 12.9502 34.5269V36.9269ZM2.7502 27.9269C2.7502 33.053 7.48385 36.9269 12.9502 36.9269V34.5269C8.47541 34.5269 5.1502 31.4166 5.1502 27.9269H2.7502ZM12.6927 18.9298C7.3399 19.0468 2.7502 22.8817 2.7502 27.9269H5.1502C5.1502 24.4906 8.3706 21.4248 12.7452 21.3292L12.6927 18.9298ZM25.5502 11.7269C19.5384 11.7269 14.2754 14.8722 11.6708 19.5452L13.7671 20.7137C15.9284 16.836 20.3679 14.1269 25.5502 14.1269V11.7269ZM40.0757 20.864C37.7823 15.4722 32.1079 11.7269 25.5502 11.7269V14.1269C31.2092 14.1269 35.9749 17.3545 37.8672 21.8034L40.0757 20.864ZM39.0145 22.533C39.1257 22.529 39.2377 22.5269 39.3502 22.5269V20.1269C39.2089 20.1269 39.0683 20.1295 38.9284 20.1345L39.0145 22.533ZM39.3502 22.5269C43.825 22.5269 47.1502 25.6373 47.1502 29.1269H49.5502C49.5502 24.0009 44.8165 20.1269 39.3502 20.1269V22.5269ZM47.1502 29.1269C47.1502 32.6166 43.825 35.7269 39.3502 35.7269V38.1269C44.8165 38.1269 49.5502 34.253 49.5502 29.1269H47.1502ZM39.3502 35.7269C37.9877 35.7269 36.714 35.4311 35.608 34.9169L34.5962 37.0933C36.0209 37.7555 37.6401 38.1269 39.3502 38.1269V35.7269Z" fill="#A1A1A1" mask="url(#path-3-inside-1_2502_11659)"/>
<circle cx="19.5768" cy="25.3802" r="1.22667" fill="#080808"/>
<ellipse cx="19.5564" cy="25.0736" rx="0.40889" ry="0.306667" fill="#EDEDED"/>
<circle opacity="0.8" cx="0.184" cy="0.184" r="0.184" transform="matrix(1 0 0 -1 18.9634 25.9937)" fill="#EDEDED"/>
<circle cx="1.22667" cy="1.22667" r="1.22667" transform="matrix(-1 0 0 1 32.8564 24.1535)" fill="#080808"/>
<ellipse cx="0.40889" cy="0.306667" rx="0.40889" ry="0.306667" transform="matrix(-1 0 0 1 32.0591 24.7669)" fill="#EDEDED"/>
<circle opacity="0.8" cx="32.0592" cy="25.8097" r="0.184" transform="rotate(180 32.0592 25.8097)" fill="#EDEDED"/>
<path d="M24.3501 30.9269C24.7865 30.2025 26.0519 29.1882 27.2301 30.9269" stroke="#080808" stroke-width="0.96" stroke-linecap="round"/>
<path d="M17.1499 28.4232L17.7829 27.3268" stroke="#F5768F" stroke-width="0.63303" stroke-linecap="round"/>
<path d="M18.0996 28.4234L18.7326 27.327" stroke="#F5768F" stroke-width="0.63303" stroke-linecap="round"/>
<path d="M19.0488 28.4232L19.6819 27.3268" stroke="#F5768F" stroke-width="0.63303" stroke-linecap="round"/>
<path d="M31.5498 28.4232L32.1828 27.3268" stroke="#F5768F" stroke-width="0.63303" stroke-linecap="round"/>
<path d="M32.4995 28.4234L33.1325 27.327" stroke="#F5768F" stroke-width="0.63303" stroke-linecap="round"/>
<path d="M33.4492 28.4232L34.0822 27.3268" stroke="#F5768F" stroke-width="0.63303" stroke-linecap="round"/>
<path d="M32.9903 29.4871C32.9903 30.0173 32.5605 30.4471 32.0303 30.4471C31.5001 30.4471 31.0703 30.0173 31.0703 29.4871C31.0703 29.1768 31.399 27.9147 31.6718 26.921C31.7736 26.5502 32.2871 26.5502 32.3888 26.921C32.6616 27.9147 32.9903 29.1768 32.9903 29.4871Z" fill="#66B0F5"/>
</g>
<rect x="0.5" y="0.501953" width="49" height="49" rx="23.75" stroke="#021526"/>
<g clip-path="url(#clip1_2502_11659)">
<rect x="58" y="0.00195312" width="50" height="50" rx="24.25" fill="#C5E1FB"/>
<path fill-rule="evenodd" clip-rule="evenodd" d="M98.1026 11.4634C98.4734 11.8343 98.4734 12.4355 98.1026 12.8063L94.4276 16.4813C94.0568 16.8521 93.4556 16.8521 93.0847 16.4813C92.7139 16.1105 92.7139 15.5093 93.0847 15.1384L96.7597 11.4634C97.1306 11.0926 97.7318 11.0926 98.1026 11.4634ZM83.8413 6.11191C83.8413 5.58749 83.4161 5.16236 82.8917 5.16236C82.3673 5.16236 81.9422 5.58749 81.9422 6.11191L81.9422 12.6084C81.9422 13.1329 82.3673 13.558 82.8917 13.558C83.4161 13.558 83.8413 13.1329 83.8413 12.6084L83.8413 6.11191ZM83.8407 39.6975C83.8407 39.1731 83.4156 38.7479 82.8911 38.7479C82.3667 38.7479 81.9416 39.1731 81.9416 39.6975L81.9416 46.194C81.9416 46.7184 82.3667 47.1436 82.8911 47.1436C83.4155 47.1436 83.8407 46.7184 83.8407 46.194V39.6975ZM61.3799 26.6743C61.3799 26.1498 61.805 25.7247 62.3294 25.7247L68.8259 25.7247C69.3504 25.7247 69.7755 26.1498 69.7755 26.6743C69.7755 27.1987 69.3504 27.6238 68.8259 27.6238L62.3294 27.6238C61.805 27.6238 61.3799 27.1987 61.3799 26.6743ZM95.9142 25.7247C95.3898 25.7247 94.9646 26.1498 94.9646 26.6743C94.9646 27.1987 95.3898 27.6238 95.9142 27.6238L102.411 27.6238C102.935 27.6238 103.36 27.1987 103.36 26.6742C103.36 26.1498 102.935 25.7247 102.411 25.7247L95.9142 25.7247ZM67.6802 11.4628C68.0511 11.092 68.6523 11.092 69.0231 11.4628L72.6981 15.1378C73.0689 15.5086 73.0689 16.1099 72.6981 16.4807C72.3273 16.8515 71.7261 16.8515 71.3552 16.4807L67.6802 12.8057C67.3094 12.4349 67.3094 11.8336 67.6802 11.4628ZM92.7717 35.2112C92.4009 34.8404 91.7997 34.8404 91.4289 35.2112C91.0581 35.582 91.0581 36.1832 91.4289 36.5541L95.1039 40.229C95.4747 40.5999 96.0759 40.5999 96.4467 40.229C96.8176 39.8582 96.8176 39.257 96.4467 38.8862L92.7717 35.2112ZM74.3546 36.5544C74.7254 36.1836 74.7254 35.5823 74.3546 35.2115C73.9837 34.8407 73.3825 34.8407 73.0117 35.2115L69.3367 38.8865C68.9659 39.2573 68.9659 39.8586 69.3367 40.2294C69.7075 40.6002 70.3087 40.6002 70.6796 40.2294L74.3546 36.5544Z" fill="#F7CA87"/>
<path d="M98.1026 12.8063L98.5269 13.2306L98.5269 13.2306L98.1026 12.8063ZM98.1026 11.4634L97.6783 11.8877L98.1026 11.4634ZM94.4276 16.4813L94.0033 16.057L94.0033 16.057L94.4276 16.4813ZM93.0847 15.1384L92.6605 14.7142L93.0847 15.1384ZM96.7597 11.4634L97.184 11.8877L96.7597 11.4634ZM83.8413 6.11191H83.2413H83.8413ZM81.9422 6.11191L82.5422 6.11191L82.5422 6.11191H81.9422ZM81.9422 12.6084H81.3422L81.3422 12.6084L81.9422 12.6084ZM83.8413 12.6084H84.4413H83.8413ZM82.8911 38.7479L82.8911 39.3479H82.8911L82.8911 38.7479ZM83.8407 39.6975L83.2407 39.6975L83.8407 39.6975ZM81.9416 39.6975L82.5416 39.6975L81.9416 39.6975ZM81.9416 46.194H81.3416H81.9416ZM82.8911 47.1436L82.8911 46.5436H82.8911V47.1436ZM83.8407 46.194L84.4407 46.194L83.8407 46.194ZM62.3294 25.7247L62.3294 26.3247L62.3294 26.3247L62.3294 25.7247ZM68.8259 25.7247L68.8259 26.3247L68.8259 25.7247ZM69.7755 26.6743L69.1755 26.6743L69.1755 26.6743L69.7755 26.6743ZM68.8259 27.6238L68.826 27.0238L68.826 27.0238L68.8259 27.6238ZM62.3294 27.6238L62.3294 28.2238L62.3294 27.6238ZM94.9646 26.6743L95.5646 26.6743L95.5646 26.6742L94.9646 26.6743ZM95.9142 25.7247L95.9142 26.3247L95.9142 25.7247ZM95.9142 27.6238L95.9142 27.0238L95.9142 27.0238L95.9142 27.6238ZM102.411 27.6238L102.411 27.0238L102.411 27.0238L102.411 27.6238ZM103.36 26.6742H102.76L102.76 26.6743L103.36 26.6742ZM102.411 25.7247L102.411 26.3247L102.411 26.3247L102.411 25.7247ZM69.0231 11.4628L68.5988 11.8871L69.0231 11.4628ZM67.6802 11.4628L68.1045 11.8871L67.6802 11.4628ZM72.6981 15.1378L73.1224 14.7136L73.1224 14.7136L72.6981 15.1378ZM92.7717 35.2112L93.196 34.7869L92.7717 35.2112ZM91.4289 36.5541L91.0046 36.9783L91.4289 36.5541ZM95.1039 40.229L95.5281 39.8048L95.1039 40.229ZM96.4467 38.8862L96.871 38.4619L96.871 38.4619L96.4467 38.8862ZM74.3546 36.5544L74.7788 36.9786L74.3546 36.5544ZM73.0117 35.2115L73.436 35.6358L73.0117 35.2115ZM69.3367 38.8865L68.9124 38.4623L69.3367 38.8865ZM70.6796 40.2294L70.2553 39.8051L70.6796 40.2294ZM98.5269 13.2306C99.132 12.6254 99.132 11.6443 98.5269 11.0392L97.6783 11.8877C97.8148 12.0242 97.8148 12.2455 97.6783 12.382L98.5269 13.2306ZM94.8519 16.9056L98.5269 13.2306L97.6783 12.382L94.0033 16.057L94.8519 16.9056ZM92.6605 16.9056C93.2656 17.5107 94.2467 17.5107 94.8519 16.9056L94.0033 16.057C93.8668 16.1935 93.6455 16.1935 93.509 16.057L92.6605 16.9056ZM92.6605 14.7142C92.0553 15.3193 92.0553 16.3004 92.6605 16.9056L93.509 16.057C93.3725 15.9205 93.3725 15.6992 93.509 15.5627L92.6605 14.7142ZM96.3355 11.0392L92.6605 14.7142L93.509 15.5627L97.184 11.8877L96.3355 11.0392ZM98.5269 11.0392C97.9217 10.434 96.9406 10.434 96.3355 11.0392L97.184 11.8877C97.3205 11.7512 97.5418 11.7512 97.6783 11.8877L98.5269 11.0392ZM82.8917 5.76236C83.0848 5.76236 83.2413 5.91886 83.2413 6.11191H84.4413C84.4413 5.25612 83.7475 4.56236 82.8917 4.56236V5.76236ZM82.5422 6.11191C82.5422 5.91886 82.6987 5.76236 82.8917 5.76236V4.56236C82.0359 4.56236 81.3422 5.25612 81.3422 6.11191H82.5422ZM82.5422 12.6084V6.11191L81.3422 6.11191L81.3422 12.6084H82.5422ZM82.8917 12.958C82.6987 12.958 82.5422 12.8015 82.5422 12.6084L81.3422 12.6084C81.3422 13.4642 82.0359 14.158 82.8917 14.158L82.8917 12.958ZM83.2413 12.6084C83.2413 12.8015 83.0848 12.958 82.8917 12.958L82.8917 14.158C83.7475 14.158 84.4413 13.4642 84.4413 12.6084L83.2413 12.6084ZM83.2413 6.11191L83.2413 12.6084L84.4413 12.6084L84.4413 6.11191H83.2413ZM82.8911 39.3479C83.0842 39.3479 83.2407 39.5044 83.2407 39.6975L84.4407 39.6975C84.4407 38.8417 83.7469 38.1479 82.8911 38.1479L82.8911 39.3479ZM82.5416 39.6975C82.5416 39.5044 82.6981 39.3479 82.8911 39.3479L82.8911 38.1479C82.0353 38.1479 81.3416 38.8417 81.3416 39.6975L82.5416 39.6975ZM82.5416 46.194L82.5416 39.6975H81.3416L81.3416 46.194L82.5416 46.194ZM82.8911 46.5436C82.6981 46.5436 82.5416 46.3871 82.5416 46.194L81.3416 46.194C81.3416 47.0498 82.0353 47.7436 82.8911 47.7436L82.8911 46.5436ZM83.2407 46.194C83.2407 46.3871 83.0842 46.5436 82.8911 46.5436L82.8911 47.7436C83.7469 47.7436 84.4407 47.0498 84.4407 46.194L83.2407 46.194ZM83.2407 39.6975L83.2407 46.194L84.4407 46.194L84.4407 39.6975H83.2407ZM62.3294 25.1247C61.4736 25.1247 60.7799 25.8185 60.7799 26.6743L61.9799 26.6742C61.9799 26.4812 62.1364 26.3247 62.3294 26.3247L62.3294 25.1247ZM68.8259 25.1247L62.3294 25.1247L62.3294 26.3247L68.8259 26.3247V25.1247ZM70.3755 26.6743C70.3755 25.8185 69.6817 25.1247 68.8259 25.1247L68.8259 26.3247C69.019 26.3247 69.1755 26.4812 69.1755 26.6743L70.3755 26.6743ZM68.8259 28.2238C69.6817 28.2238 70.3755 27.53 70.3755 26.6743L69.1755 26.6743C69.1755 26.8673 69.019 27.0238 68.826 27.0238L68.8259 28.2238ZM62.3294 28.2238L68.826 28.2238V27.0238L62.3294 27.0238L62.3294 28.2238ZM60.7799 26.6743C60.7799 27.53 61.4736 28.2238 62.3294 28.2238L62.3294 27.0238C62.1364 27.0238 61.9799 26.8673 61.9799 26.6742L60.7799 26.6743ZM95.5646 26.6742C95.5646 26.4812 95.7211 26.3247 95.9142 26.3247L95.9142 25.1247C95.0584 25.1247 94.3646 25.8185 94.3646 26.6743L95.5646 26.6742ZM95.9142 27.0238C95.7211 27.0238 95.5646 26.8673 95.5646 26.6743L94.3646 26.6742C94.3646 27.53 95.0584 28.2238 95.9142 28.2238L95.9142 27.0238ZM102.411 27.0238H95.9142L95.9142 28.2238L102.411 28.2238L102.411 27.0238ZM102.76 26.6743C102.76 26.8673 102.604 27.0238 102.411 27.0238L102.411 28.2238C103.267 28.2238 103.96 27.53 103.96 26.6742L102.76 26.6743ZM102.411 26.3247C102.604 26.3247 102.76 26.4812 102.76 26.6742L103.96 26.6743C103.96 25.8185 103.267 25.1247 102.411 25.1247L102.411 26.3247ZM95.9142 26.3247L102.411 26.3247L102.411 25.1247L95.9142 25.1247L95.9142 26.3247ZM69.4474 11.0386C68.8422 10.4334 67.8611 10.4334 67.256 11.0386L68.1045 11.8871C68.241 11.7506 68.4623 11.7506 68.5988 11.8871L69.4474 11.0386ZM73.1224 14.7136L69.4474 11.0386L68.5988 11.8871L72.2738 15.5621L73.1224 14.7136ZM73.1224 16.9049C73.7275 16.2998 73.7275 15.3187 73.1224 14.7136L72.2738 15.5621C72.4103 15.6986 72.4103 15.9199 72.2738 16.0564L73.1224 16.9049ZM70.931 16.9049C71.5361 17.5101 72.5172 17.5101 73.1224 16.9049L72.2738 16.0564C72.1373 16.1929 71.916 16.1929 71.7795 16.0564L70.931 16.9049ZM67.256 13.2299L70.931 16.9049L71.7795 16.0564L68.1045 12.3814L67.256 13.2299ZM67.256 11.0386C66.6509 11.6437 66.6508 12.6248 67.256 13.2299L68.1045 12.3814C67.968 12.2449 67.968 12.0236 68.1045 11.8871L67.256 11.0386ZM91.8531 35.6355C91.9897 35.499 92.211 35.499 92.3475 35.6355L93.196 34.7869C92.5909 34.1818 91.6098 34.1818 91.0046 34.7869L91.8531 35.6355ZM91.8531 36.1298C91.7166 35.9933 91.7166 35.772 91.8531 35.6355L91.0046 34.7869C90.3995 35.3921 90.3995 36.3732 91.0046 36.9783L91.8531 36.1298ZM95.5281 39.8048L91.8531 36.1298L91.0046 36.9783L94.6796 40.6533L95.5281 39.8048ZM96.0225 39.8048C95.886 39.9413 95.6646 39.9413 95.5281 39.8048L94.6796 40.6533C95.2848 41.2584 96.2659 41.2584 96.871 40.6533L96.0225 39.8048ZM96.0225 39.3105C96.159 39.447 96.159 39.6683 96.0225 39.8048L96.871 40.6533C97.4761 40.0482 97.4761 39.0671 96.871 38.4619L96.0225 39.3105ZM92.3475 35.6355L96.0225 39.3105L96.871 38.4619L93.196 34.7869L92.3475 35.6355ZM73.9303 35.6358C74.0668 35.7723 74.0668 35.9936 73.9303 36.1301L74.7788 36.9786C75.384 36.3735 75.384 35.3924 74.7788 34.7873L73.9303 35.6358ZM73.436 35.6358C73.5725 35.4993 73.7938 35.4993 73.9303 35.6358L74.7788 34.7873C74.1737 34.1821 73.1926 34.1821 72.5874 34.7873L73.436 35.6358ZM69.761 39.3108L73.436 35.6358L72.5874 34.7873L68.9124 38.4623L69.761 39.3108ZM69.761 39.8051C69.6245 39.6686 69.6245 39.4473 69.761 39.3108L68.9124 38.4623C68.3073 39.0674 68.3073 40.0485 68.9124 40.6536L69.761 39.8051ZM70.2553 39.8051C70.1188 39.9416 69.8975 39.9416 69.761 39.8051L68.9124 40.6536C69.5176 41.2588 70.4987 41.2588 71.1038 40.6536L70.2553 39.8051ZM73.9303 36.1301L70.2553 39.8051L71.1038 40.6536L74.7788 36.9786L73.9303 36.1301Z" fill="#F1A027"/>
<circle cx="82.8908" cy="26.252" r="10.2" fill="#F7CA87" stroke="#F1A027" stroke-width="1.2"/>
<path d="M78.8412 24.2273C78.8412 24.9728 78.69 25.5773 78.1662 25.5773C77.6424 25.5773 77.4912 24.9728 77.4912 24.2273C77.4912 23.4817 77.5891 22.8773 78.1662 22.8773C78.7434 22.8773 78.8412 23.4817 78.8412 24.2273Z" fill="#080808"/>
<path d="M88.2909 24.2273C88.2909 24.9728 88.1397 25.5773 87.6159 25.5773C87.0921 25.5773 86.9409 24.9728 86.9409 24.2273C86.9409 23.4817 87.0388 22.8773 87.6159 22.8773C88.1931 22.8773 88.2909 23.4817 88.2909 24.2273Z" fill="#080808"/>
<path d="M74.791 27.7225L75.424 26.6261" stroke="#FAB3B3" stroke-width="0.63303" stroke-linecap="round"/>
<path d="M75.7407 27.7225L76.3738 26.6261" stroke="#FAB3B3" stroke-width="0.63303" stroke-linecap="round"/>
<path d="M76.6899 27.7225L77.323 26.6261" stroke="#FAB3B3" stroke-width="0.63303" stroke-linecap="round"/>
<path d="M88.291 27.7225L88.924 26.6261" stroke="#FAB3B3" stroke-width="0.63303" stroke-linecap="round"/>
<path d="M89.2407 27.7225L89.8738 26.6261" stroke="#FAB3B3" stroke-width="0.63303" stroke-linecap="round"/>
<path d="M90.1899 27.7225L90.823 26.6261" stroke="#FAB3B3" stroke-width="0.63303" stroke-linecap="round"/>
<path fill-rule="evenodd" clip-rule="evenodd" d="M78.8408 28.7712C78.8408 28.7713 78.8408 28.7714 78.8408 28.7715C78.8408 31.0082 80.6541 32.8215 82.8908 32.8215C85.1276 32.8215 86.9408 31.0082 86.9408 28.7715C86.9408 28.7714 86.9408 28.7713 86.9408 28.7712H78.8408Z" fill="#F45353"/>
<ellipse cx="78.6681" cy="23.9987" rx="0.767737" ry="0.575802" fill="white"/>
<ellipse cx="88.1369" cy="23.9987" rx="0.767737" ry="0.575802" fill="white"/>
</g>
<rect x="58.5" y="0.501953" width="49" height="49" rx="23.75" stroke="#66B0F5"/>
<rect x="116.5" y="0.501953" width="49" height="49" rx="23.75" fill="#F5FAFE"/>
<rect x="116.5" y="0.501953" width="49" height="49" rx="23.75" stroke="#96C9F8"/>
<mask id="path-36-inside-2_2502_11659" fill="white">
<path fill-rule="evenodd" clip-rule="evenodd" d="M136.911 38.8861C131.211 40.1798 124.938 38.3405 122.793 30.3328C120.963 23.5048 125.64 12.2245 127.351 8.44792C127.662 7.7625 128.495 7.53932 129.107 7.9776C132.477 10.3925 142.167 17.8232 143.997 24.6512C146.122 32.581 143.618 36.7865 138.278 38.5121C139.716 40.6507 141.07 41.2634 141.775 41.5825L141.794 41.5909C142.199 41.7742 142.608 41.8906 142.961 41.9733C143.111 42.0087 143.248 42.037 143.372 42.0628L143.435 42.0759L143.435 42.076C143.559 42.1018 143.709 42.133 143.821 42.171L143.822 42.1716C143.864 42.1856 143.995 42.23 144.11 42.3333C144.176 42.3931 144.287 42.517 144.32 42.7123C144.355 42.9225 144.282 43.0932 144.209 43.1964C144.099 43.352 143.945 43.4249 143.902 43.445L143.899 43.4466C143.829 43.4795 143.753 43.5073 143.68 43.5312C143.404 43.6223 142.9 43.7483 142.143 43.9374L142.106 43.9467C140.447 44.361 139.196 43.3085 138.388 42.1481C137.676 41.1262 137.186 39.8662 136.911 38.8861ZM141.405 42.7855C140.818 42.79 140.271 42.4702 139.761 41.8835C140.377 42.3188 140.904 42.5604 141.278 42.7296C141.321 42.7489 141.363 42.7675 141.405 42.7855Z"/>
</mask>
<path fill-rule="evenodd" clip-rule="evenodd" d="M136.911 38.8861C131.211 40.1798 124.938 38.3405 122.793 30.3328C120.963 23.5048 125.64 12.2245 127.351 8.44792C127.662 7.7625 128.495 7.53932 129.107 7.9776C132.477 10.3925 142.167 17.8232 143.997 24.6512C146.122 32.581 143.618 36.7865 138.278 38.5121C139.716 40.6507 141.07 41.2634 141.775 41.5825L141.794 41.5909C142.199 41.7742 142.608 41.8906 142.961 41.9733C143.111 42.0087 143.248 42.037 143.372 42.0628L143.435 42.0759L143.435 42.076C143.559 42.1018 143.709 42.133 143.821 42.171L143.822 42.1716C143.864 42.1856 143.995 42.23 144.11 42.3333C144.176 42.3931 144.287 42.517 144.32 42.7123C144.355 42.9225 144.282 43.0932 144.209 43.1964C144.099 43.352 143.945 43.4249 143.902 43.445L143.899 43.4466C143.829 43.4795 143.753 43.5073 143.68 43.5312C143.404 43.6223 142.9 43.7483 142.143 43.9374L142.106 43.9467C140.447 44.361 139.196 43.3085 138.388 42.1481C137.676 41.1262 137.186 39.8662 136.911 38.8861ZM141.405 42.7855C140.818 42.79 140.271 42.4702 139.761 41.8835C140.377 42.3188 140.904 42.5604 141.278 42.7296C141.321 42.7489 141.363 42.7675 141.405 42.7855Z" fill="#B3EFDF"/>
<path d="M136.911 38.8861L138.115 38.5492L137.794 37.4039L136.635 37.6671L136.911 38.8861ZM122.793 30.3328L121.585 30.6563L122.793 30.3328ZM127.351 8.44792L128.49 8.96389V8.96389L127.351 8.44792ZM129.107 7.9776L128.379 8.99372L128.379 8.99372L129.107 7.9776ZM143.997 24.6512L145.204 24.3276L143.997 24.6512ZM138.278 38.5121L137.894 37.3227L136.315 37.8328L137.241 39.2094L138.278 38.5121ZM141.775 41.5825L141.26 42.7214L141.26 42.7214L141.775 41.5825ZM141.794 41.5909L142.309 40.4521L142.309 40.452L141.794 41.5909ZM142.961 41.9733L143.246 40.7563H143.246L142.961 41.9733ZM143.372 42.0628L143.627 40.839L143.626 40.8389L143.372 42.0628ZM143.435 42.0759L143.695 40.8531L143.69 40.8521L143.435 42.0759ZM143.435 42.076L143.176 43.2987L143.18 43.2996L143.435 42.076ZM143.821 42.171L144.222 40.9874L144.222 40.9873L143.821 42.171ZM143.822 42.1716L143.421 43.3553L143.421 43.3555L143.822 42.1716ZM144.11 42.3333L143.274 43.2628L143.274 43.2628L144.11 42.3333ZM144.32 42.7123L145.552 42.5037L145.552 42.5037L144.32 42.7123ZM144.209 43.1964L145.231 43.9163L145.231 43.9163L144.209 43.1964ZM143.902 43.445L143.369 42.3146L143.368 42.3148L143.902 43.445ZM143.899 43.4466L143.365 42.3163L143.364 42.317L143.899 43.4466ZM143.68 43.5312L144.072 44.7182L144.072 44.7182L143.68 43.5312ZM142.143 43.9374L141.84 42.7247H141.84L142.143 43.9374ZM142.106 43.9467L141.803 42.7339L141.803 42.7339L142.106 43.9467ZM138.388 42.1481L139.413 41.4337V41.4337L138.388 42.1481ZM139.761 41.8835L140.483 40.8631L138.818 42.7032L139.761 41.8835ZM141.405 42.7855L141.415 44.0354L141.895 41.6352L141.405 42.7855ZM141.278 42.7296L141.794 41.5909L141.794 41.5909L141.278 42.7296ZM136.635 37.6671C133.991 38.2671 131.311 38.1176 129.087 36.9838C126.896 35.8673 124.995 33.7202 124 30.0093L121.585 30.6563C122.737 34.9531 125.044 37.7295 127.952 39.2112C130.825 40.6755 134.132 40.7988 137.188 40.1051L136.635 37.6671ZM124 30.0093C123.178 26.9419 123.802 22.6968 124.948 18.5814C126.078 14.523 127.647 10.8241 128.49 8.96389L126.213 7.93196C125.344 9.84837 123.719 13.6779 122.54 17.9108C121.377 22.0867 120.578 26.8957 121.585 30.6563L124 30.0093ZM128.49 8.96389C128.49 8.96265 128.487 8.9707 128.475 8.98024C128.465 8.98892 128.453 8.99529 128.44 8.99878C128.427 9.00228 128.413 9.00291 128.399 9.00055C128.385 8.99796 128.377 8.99292 128.379 8.99372L129.835 6.96149C128.582 6.06415 126.849 6.52862 126.213 7.93196L128.49 8.96389ZM128.379 8.99372C130.039 10.1832 133.247 12.6023 136.254 15.552C139.305 18.543 141.968 21.9073 142.789 24.9747L145.204 24.3276C144.197 20.5671 141.1 16.802 138.005 13.767C134.868 10.6906 131.545 8.18691 129.835 6.96149L128.379 8.99372ZM142.789 24.9747C143.812 28.791 143.66 31.4978 142.799 33.3904C141.955 35.2447 140.329 36.5358 137.894 37.3227L138.662 39.7016C141.567 38.7628 143.863 37.0883 145.074 34.426C146.269 31.802 146.306 28.4412 145.204 24.3276L142.789 24.9747ZM137.241 39.2094C138.854 41.6094 140.434 42.3475 141.26 42.7214L142.29 40.4436C141.706 40.1793 140.577 39.6919 139.315 37.8148L137.241 39.2094ZM141.26 42.7214L141.278 42.7297L142.309 40.452L142.29 40.4436L141.26 42.7214ZM141.278 42.7297C141.786 42.9595 142.282 43.098 142.675 43.1902L143.246 40.7563C142.934 40.6832 142.611 40.5889 142.309 40.4521L141.278 42.7297ZM142.675 43.1902C142.844 43.2298 142.994 43.2611 143.118 43.2867L143.626 40.8389C143.501 40.8129 143.379 40.7876 143.246 40.7563L142.675 43.1902ZM143.117 43.2866L143.18 43.2997L143.69 40.8521L143.627 40.839L143.117 43.2866ZM143.175 43.2987L143.176 43.2987L143.695 40.8532L143.695 40.8532L143.175 43.2987ZM143.18 43.2996C143.244 43.313 143.297 43.3241 143.345 43.3355C143.368 43.341 143.387 43.3456 143.401 43.3494C143.415 43.3534 143.421 43.3553 143.419 43.3547L144.222 40.9873C144.023 40.9197 143.791 40.8733 143.691 40.8523L143.18 43.2996ZM143.419 43.3547L143.421 43.3553L144.224 40.988L144.222 40.9874L143.419 43.3547ZM143.421 43.3555C143.428 43.3579 143.409 43.3516 143.386 43.3403C143.366 43.3303 143.323 43.3074 143.274 43.2628L144.945 41.4037C144.63 41.1198 144.29 41.0102 144.224 40.9877L143.421 43.3555ZM143.274 43.2628C143.223 43.2171 143.118 43.1055 143.087 42.9209L145.552 42.5037C145.455 41.9284 145.129 41.5691 144.945 41.4037L143.274 43.2628ZM143.087 42.9209C143.053 42.7197 143.127 42.5619 143.187 42.4765L145.231 43.9163C145.436 43.6245 145.657 43.1252 145.552 42.5037L143.087 42.9209ZM143.187 42.4765C143.237 42.4054 143.288 42.3652 143.315 42.3461C143.345 42.3254 143.372 42.3131 143.369 42.3146L144.436 44.5755C144.509 44.5406 144.922 44.3539 145.231 43.9163L143.187 42.4765ZM143.368 42.3148L143.365 42.3163L144.433 44.5768L144.436 44.5753L143.368 42.3148ZM143.364 42.317C143.365 42.3161 143.36 42.3187 143.346 42.3242C143.331 42.3296 143.313 42.3362 143.289 42.3442L144.072 44.7182C144.164 44.6881 144.296 44.6415 144.434 44.5761L143.364 42.317ZM143.289 42.3442C143.069 42.4167 142.626 42.5282 141.84 42.7247L142.445 45.1502C143.174 44.9683 143.74 44.828 144.072 44.7182L143.289 42.3442ZM141.84 42.7247L141.803 42.7339L142.408 45.1594L142.445 45.1502L141.84 42.7247ZM141.803 42.7339C140.927 42.9527 140.134 42.4679 139.413 41.4337L137.362 42.8625C138.258 44.1492 139.967 45.7692 142.408 45.1594L141.803 42.7339ZM139.413 41.4337C138.808 40.5652 138.367 39.4483 138.115 38.5492L135.707 39.2231C136.004 40.2841 136.543 41.6873 137.362 42.8625L139.413 41.4337ZM138.818 42.7032C139.456 43.4377 140.321 44.0438 141.415 44.0354L141.396 41.5355C141.315 41.5361 141.086 41.5026 140.705 41.0637L138.818 42.7032ZM141.794 41.5909C141.436 41.4291 140.998 41.2271 140.483 40.8631L139.039 42.9039C139.756 43.4106 140.372 43.6917 140.763 43.8684L141.794 41.5909ZM141.895 41.6352C141.861 41.6208 141.827 41.6061 141.794 41.5909L140.763 43.8684C140.814 43.8917 140.865 43.9141 140.916 43.9357L141.895 41.6352Z" fill="#5FDDBC" mask="url(#path-36-inside-2_2502_11659)"/>
<path d="M129.875 12.752C130.625 19.1293 133.175 32.8075 137.375 36.502" stroke="#5FDDBC" stroke-width="1.25" stroke-linecap="round" stroke-linejoin="round"/>
<path d="M143 17.127C147.583 19.4186 156.5 22.002 155.5 14.002" stroke="#5FDDBC" stroke-width="1.25" stroke-linecap="round" stroke-linejoin="round"/>
<path d="M144.875 22.6682C149.9 24.4401 159.355 25.1452 158.58 20.252" stroke="#5FDDBC" stroke-width="1.25" stroke-linecap="round" stroke-linejoin="round"/>
<path d="M146.125 26.1623C150.5 29.002 162.943 29.5323 161.75 24.002" stroke="#5FDDBC" stroke-width="1.25" stroke-linecap="round" stroke-linejoin="round"/>
<path d="M129.1 22.9834C128.696 23.7662 127.45 24.9072 126.107 23.1807" stroke="#080808" stroke-linecap="round"/>
<path d="M139.073 21.502C138.765 22.3273 137.664 23.6083 136.125 22.0539" stroke="#080808" stroke-linecap="round"/>
<path d="M124.987 26.6124L125.516 25.4041" stroke="#F78383" stroke-width="0.659406" stroke-linecap="round"/>
<path d="M125.97 26.5025L126.499 25.2943" stroke="#F78383" stroke-width="0.659406" stroke-linecap="round"/>
<path d="M126.953 26.3927L127.482 25.1845" stroke="#F78383" stroke-width="0.659406" stroke-linecap="round"/>
<path d="M138.203 25.3128L138.561 24.0434" stroke="#F78383" stroke-width="0.659406" stroke-linecap="round"/>
<path d="M139.162 25.0691L139.52 23.7997" stroke="#F78383" stroke-width="0.659406" stroke-linecap="round"/>
<path d="M140.12 24.8253L140.478 23.5559" stroke="#F78383" stroke-width="0.659406" stroke-linecap="round"/>
<path d="M131.231 30.4833C132.56 31.935 135.06 32.56 136.042 29.0019" stroke="#080808" stroke-linecap="round"/>
<rect x="174.5" y="0.501953" width="49" height="49" rx="23.75" fill="#FCD4DC"/>
<rect x="174.5" y="0.501953" width="49" height="49" rx="23.75" stroke="#F14667"/>
<mask id="mask0_2502_11659" style="mask-type:alpha" maskUnits="userSpaceOnUse" x="178" y="8" width="43" height="23">
<rect x="178.894" y="8.25195" width="41.9787" height="22.4516" fill="#D9D9D9"/>
</mask>
<g mask="url(#mask0_2502_11659)">
<path fill-rule="evenodd" clip-rule="evenodd" d="M199.883 51.3591C211.021 51.3591 220.051 41.9102 220.051 30.2545C220.051 18.5988 211.021 9.15002 199.883 9.15002C188.744 9.15002 179.714 18.5988 179.714 30.2545C179.714 41.9102 188.744 51.3591 199.883 51.3591ZM199.883 36.3514C203.273 36.3514 206.021 33.6217 206.021 30.2545C206.021 26.8873 203.273 24.1577 199.883 24.1577C196.493 24.1577 193.745 26.8873 193.745 30.2545C193.745 33.6217 196.493 36.3514 199.883 36.3514Z" fill="#FE4A4A"/>
<path fill-rule="evenodd" clip-rule="evenodd" d="M199.883 50.461C210.548 50.461 219.193 41.4143 219.193 30.2545C219.193 19.0948 210.548 10.0481 199.883 10.0481C189.218 10.0481 180.573 19.0948 180.573 30.2545C180.573 41.4143 189.218 50.461 199.883 50.461ZM199.883 36.092C203.128 36.092 205.76 33.4785 205.76 30.2545C205.76 27.0306 203.128 24.4171 199.883 24.4171C196.637 24.4171 194.006 27.0306 194.006 30.2545C194.006 33.4785 196.637 36.092 199.883 36.092Z" fill="#FA9393"/>
<path fill-rule="evenodd" clip-rule="evenodd" d="M199.883 12.7423C209.156 12.7423 216.674 20.5828 216.674 30.2545C216.674 39.9263 209.156 47.7668 199.883 47.7668C190.609 47.7668 183.091 39.9263 183.091 30.2545C183.091 20.5828 190.609 12.7423 199.883 12.7423ZM199.883 24.4171C203.128 24.4171 205.76 27.0306 205.76 30.2545C205.76 33.4785 203.128 36.092 199.883 36.092C196.637 36.092 194.006 33.4785 194.006 30.2545C194.006 27.0306 196.637 24.4171 199.883 24.4171Z" fill="#FCCC83"/>
<path fill-rule="evenodd" clip-rule="evenodd" d="M199.883 15.4365C207.766 15.4365 214.156 22.0707 214.156 30.2545C214.156 38.4383 207.766 45.0726 199.883 45.0726C192 45.0726 185.61 38.4383 185.61 30.2545C185.61 22.0707 192 15.4365 199.883 15.4365ZM199.883 24.4171C203.129 24.4171 205.76 27.0306 205.76 30.2545C205.76 33.4785 203.129 36.092 199.883 36.092C196.637 36.092 194.006 33.4785 194.006 30.2545C194.006 27.0306 196.637 24.4171 199.883 24.4171Z" fill="#FEF7B5"/>
<path fill-rule="evenodd" clip-rule="evenodd" d="M199.883 17.2326C206.838 17.2326 212.477 23.0627 212.477 30.2545C212.477 37.4463 206.838 43.2765 199.883 43.2765C192.928 43.2765 187.29 37.4463 187.29 30.2545C187.29 23.0627 192.928 17.2326 199.883 17.2326ZM199.883 24.4171C203.129 24.4171 205.76 27.0306 205.76 30.2545C205.76 33.4785 203.129 36.092 199.883 36.092C196.637 36.092 194.006 33.4785 194.006 30.2545C194.006 27.0306 196.637 24.4171 199.883 24.4171Z" fill="#C7F1E6"/>
<path fill-rule="evenodd" clip-rule="evenodd" d="M199.883 19.9268C205.447 19.9268 209.958 24.5506 209.958 30.2545C209.958 35.9584 205.447 40.5822 199.883 40.5822C194.319 40.5822 189.808 35.9584 189.808 30.2545C189.808 24.5506 194.319 19.9268 199.883 19.9268ZM199.883 24.4171C203.128 24.4171 205.76 27.0306 205.76 30.2545C205.76 33.4784 203.128 36.0919 199.883 36.0919C196.637 36.0919 194.006 33.4784 194.006 30.2545C194.006 27.0306 196.637 24.4171 199.883 24.4171Z" fill="#BDDDFC"/>
<path fill-rule="evenodd" clip-rule="evenodd" d="M199.883 22.621C204.056 22.621 207.439 26.0387 207.439 30.2545C207.439 34.4704 204.056 37.8881 199.883 37.8881C195.71 37.8881 192.327 34.4704 192.327 30.2545C192.327 26.0387 195.71 22.621 199.883 22.621ZM199.883 24.4171C203.128 24.4171 205.76 27.0306 205.76 30.2545C205.76 33.4785 203.128 36.092 199.883 36.092C196.637 36.092 194.006 33.4785 194.006 30.2545C194.006 27.0306 196.637 24.4171 199.883 24.4171Z" fill="#E1CEF9"/>
<path fill-rule="evenodd" clip-rule="evenodd" d="M199.883 24.4171C203.129 24.4171 205.76 27.0306 205.76 30.2545C205.76 33.4784 203.129 36.0919 199.883 36.0919C196.637 36.0919 194.006 33.4784 194.006 30.2545C194.006 27.0306 196.637 24.4171 199.883 24.4171ZM199.883 25.7906C202.408 25.7906 204.454 27.7892 204.454 30.2545C204.454 32.7199 202.408 34.7185 199.883 34.7185C197.359 34.7185 195.312 32.7199 195.312 30.2545C195.312 27.7892 197.359 25.7906 199.883 25.7906Z" fill="#B882FE"/>
</g>
<mask id="path-61-inside-3_2502_11659" fill="white">
<path fill-rule="evenodd" clip-rule="evenodd" d="M191.101 34.849C189.9 35.6224 188.318 36.092 186.586 36.092C184.702 36.092 182.997 35.5369 181.765 34.6398C181.404 34.7083 181.023 34.7449 180.63 34.7449C178.28 34.7449 176.375 33.4382 176.375 31.8262C176.375 30.2393 178.221 28.9483 180.52 28.9084C181.647 27.3086 183.94 26.2133 186.586 26.2133C189.474 26.2133 191.941 27.5179 192.931 29.3591C192.99 29.3574 193.05 29.3565 193.11 29.3565C195.459 29.3565 197.364 30.6633 197.364 32.2753C197.364 33.8872 195.459 35.194 193.11 35.194C192.383 35.194 191.7 35.0691 191.101 34.849Z"/>
</mask>
<path fill-rule="evenodd" clip-rule="evenodd" d="M191.101 34.849C189.9 35.6224 188.318 36.092 186.586 36.092C184.702 36.092 182.997 35.5369 181.765 34.6398C181.404 34.7083 181.023 34.7449 180.63 34.7449C178.28 34.7449 176.375 33.4382 176.375 31.8262C176.375 30.2393 178.221 28.9483 180.52 28.9084C181.647 27.3086 183.94 26.2133 186.586 26.2133C189.474 26.2133 191.941 27.5179 192.931 29.3591C192.99 29.3574 193.05 29.3565 193.11 29.3565C195.459 29.3565 197.364 30.6633 197.364 32.2753C197.364 33.8872 195.459 35.194 193.11 35.194C192.383 35.194 191.7 35.0691 191.101 34.849Z" fill="white"/>
<path d="M191.101 34.849L191.433 33.9481L190.984 33.7829L190.582 34.0418L191.101 34.849ZM181.765 34.6398L182.33 33.8636L181.994 33.6193L181.586 33.6966L181.765 34.6398ZM180.52 28.9084L180.537 29.8683L181.024 29.8598L181.305 29.4611L180.52 28.9084ZM192.931 29.3591L192.085 29.8135L192.365 30.3355L192.958 30.3187L192.931 29.3591ZM186.586 37.052C188.486 37.052 190.251 36.5379 191.621 35.6563L190.582 34.0418C189.548 34.7068 188.151 35.132 186.586 35.132V37.052ZM181.2 35.416C182.614 36.445 184.522 37.052 186.586 37.052V35.132C184.883 35.132 183.381 34.6287 182.33 33.8636L181.2 35.416ZM180.63 35.7049C181.082 35.7049 181.523 35.6628 181.944 35.583L181.586 33.6966C181.284 33.7538 180.963 33.7849 180.63 33.7849V35.7049ZM175.415 31.8262C175.415 33.0403 176.133 34.0334 177.078 34.6817C178.027 35.3329 179.286 35.7049 180.63 35.7049V33.7849C179.623 33.7849 178.755 33.5035 178.164 33.0984C177.569 32.6903 177.335 32.2241 177.335 31.8262H175.415ZM180.504 27.9486C179.188 27.9714 177.959 28.3513 177.034 29.0016C176.111 29.6496 175.415 30.6314 175.415 31.8262H177.335C177.335 31.4342 177.562 30.9769 178.137 30.5727C178.709 30.1709 179.553 29.8853 180.537 29.8683L180.504 27.9486ZM186.586 25.2533C183.708 25.2533 181.083 26.4413 179.735 28.3557L181.305 29.4611C182.21 28.1759 184.172 27.1733 186.586 27.1733V25.2533ZM193.776 28.9047C192.572 26.6642 189.715 25.2533 186.586 25.2533V27.1733C189.233 27.1733 191.31 28.3715 192.085 29.8135L193.776 28.9047ZM192.958 30.3187C193.008 30.3173 193.059 30.3165 193.11 30.3165V28.3965C193.041 28.3965 192.972 28.3975 192.903 28.3995L192.958 30.3187ZM193.11 30.3165C194.116 30.3165 194.984 30.598 195.575 31.003C196.17 31.4112 196.404 31.8774 196.404 32.2753H198.324C198.324 31.0612 197.606 30.068 196.661 29.4198C195.712 28.7685 194.453 28.3965 193.11 28.3965V30.3165ZM196.404 32.2753C196.404 32.6731 196.17 33.1393 195.575 33.5475C194.984 33.9526 194.116 34.234 193.11 34.234V36.154C194.453 36.154 195.712 35.782 196.661 35.1307C197.606 34.4825 198.324 33.4893 198.324 32.2753H196.404ZM193.11 34.234C192.492 34.234 191.921 34.1275 191.433 33.9481L190.77 35.7499C191.478 36.0107 192.275 36.154 193.11 36.154V34.234Z" fill="#A1A1A1" mask="url(#path-61-inside-3_2502_11659)"/>
<mask id="path-63-inside-4_2502_11659" fill="white">
<path fill-rule="evenodd" clip-rule="evenodd" d="M209.363 32.8805C210.368 33.6321 211.706 34.1326 213.194 34.2242C214.832 34.325 216.338 33.9105 217.445 33.1599C217.747 33.2369 218.065 33.2876 218.395 33.3079C220.43 33.4332 222.136 32.3545 222.205 30.8987C222.273 29.4669 220.734 28.2035 218.747 28.0431C217.837 26.5455 215.903 25.4407 213.62 25.3001C211.107 25.1455 208.904 26.2037 207.976 27.8278C207.933 27.8241 207.889 27.8209 207.846 27.8182C205.811 27.693 204.105 28.7716 204.036 30.2274C203.966 31.6832 205.559 32.9649 207.594 33.0901C208.229 33.1292 208.832 33.0509 209.363 32.8805Z"/>
</mask>
<path fill-rule="evenodd" clip-rule="evenodd" d="M209.363 32.8805C210.368 33.6321 211.706 34.1326 213.194 34.2242C214.832 34.325 216.338 33.9105 217.445 33.1599C217.747 33.2369 218.065 33.2876 218.395 33.3079C220.43 33.4332 222.136 32.3545 222.205 30.8987C222.273 29.4669 220.734 28.2035 218.747 28.0431C217.837 26.5455 215.903 25.4407 213.62 25.3001C211.107 25.1455 208.904 26.2037 207.976 27.8278C207.933 27.8241 207.889 27.8209 207.846 27.8182C205.811 27.693 204.105 28.7716 204.036 30.2274C203.966 31.6832 205.559 32.9649 207.594 33.0901C208.229 33.1292 208.832 33.0509 209.363 32.8805Z" fill="white"/>
<path d="M213.194 34.2242L213.142 35.1827L213.194 34.2242ZM209.363 32.8805L209.065 31.9658L209.536 31.8146L209.935 32.1129L209.363 32.8805ZM217.445 33.1599L216.903 32.3635L217.258 32.1227L217.676 32.2294L217.445 33.1599ZM218.395 33.3079L218.343 34.2665L218.343 34.2665L218.395 33.3079ZM222.205 30.8987L223.164 30.9515L222.205 30.8987ZM218.747 28.0431L218.677 29.0004L218.185 28.9607L217.928 28.5379L218.747 28.0431ZM213.62 25.3001L213.672 24.3416L213.62 25.3001ZM207.976 27.8278L208.81 28.3092L208.508 28.8372L207.9 28.7846L207.976 27.8278ZM207.846 27.8182L207.794 28.7767L207.794 28.7767L207.846 27.8182ZM207.594 33.0901L207.542 34.0487L207.594 33.0901ZM213.142 35.1827C211.48 35.0805 209.958 34.5205 208.792 33.6481L209.935 32.1129C210.778 32.7438 211.933 33.1848 213.246 33.2656L213.142 35.1827ZM217.987 33.9562C216.689 34.8362 214.97 35.2953 213.142 35.1827L213.246 33.2656C214.694 33.3547 215.986 32.9848 216.903 32.3635L217.987 33.9562ZM218.343 34.2665C217.953 34.2425 217.575 34.1824 217.214 34.0903L217.676 32.2294C217.919 32.2913 218.177 32.3327 218.447 32.3494L218.343 34.2665ZM223.164 30.9515C223.11 32.07 222.43 32.9549 221.554 33.5091C220.676 34.0642 219.537 34.34 218.343 34.2665L218.447 32.3494C219.288 32.4011 220.019 32.2002 220.52 31.8833C221.023 31.5655 221.23 31.1832 221.247 30.8459L223.164 30.9515ZM218.817 27.0859C219.984 27.1801 221.059 27.5999 221.853 28.2545C222.646 28.9079 223.216 29.8537 223.164 30.9515L221.247 30.8459C221.262 30.5119 221.096 30.11 220.64 29.7337C220.185 29.3585 219.496 29.0666 218.677 29.0004L218.817 27.0859ZM213.672 24.3416C216.203 24.4974 218.458 25.7261 219.566 27.5484L217.928 28.5379C217.215 27.3649 215.604 26.3841 213.568 26.2587L213.672 24.3416ZM207.142 27.3465C208.296 25.3273 210.899 24.1709 213.672 24.3416L213.568 26.2587C211.315 26.12 209.512 27.08 208.81 28.3092L207.142 27.3465ZM207.9 28.7846C207.865 28.7816 207.829 28.7789 207.794 28.7767L207.898 26.8596C207.949 26.8628 208.001 26.8666 208.052 26.871L207.9 28.7846ZM207.794 28.7767C206.953 28.725 206.222 28.9259 205.721 29.2428C205.218 29.5606 205.011 29.9429 204.994 30.2802L203.077 30.1746C203.131 29.0561 203.811 28.1712 204.687 27.617C205.565 27.0619 206.704 26.7861 207.898 26.8596L207.794 28.7767ZM204.994 30.2802C204.978 30.6194 205.15 31.0299 205.624 31.4109C206.095 31.7902 206.806 32.0798 207.646 32.1315L207.542 34.0487C206.348 33.9752 205.244 33.5613 204.428 32.9045C203.614 32.2495 203.024 31.2912 203.077 30.1746L204.994 30.2802ZM207.646 32.1315C208.167 32.1636 208.651 32.0985 209.065 31.9658L209.662 33.7953C209.014 34.0033 208.291 34.0948 207.542 34.0487L207.646 32.1315Z" fill="#A1A1A1" mask="url(#path-63-inside-4_2502_11659)"/>
<path fill-rule="evenodd" clip-rule="evenodd" d="M197.364 20.8249C197.364 20.8249 197.364 20.825 197.364 20.8251C197.364 22.4991 198.633 23.8561 200.198 23.8561C201.763 23.8561 203.031 22.4991 203.031 20.8251C203.031 20.825 203.031 20.8249 203.031 20.8249H197.364Z" fill="#F45353"/>
<path d="M190.209 21.6736L190.716 20.7964" stroke="#F02222" stroke-width="0.506424" stroke-linecap="round"/>
<path d="M190.969 21.6737L191.476 20.7965" stroke="#F02222" stroke-width="0.506424" stroke-linecap="round"/>
<path d="M191.729 21.6736L192.235 20.7964" stroke="#F02222" stroke-width="0.506424" stroke-linecap="round"/>
<path d="M208.555 21.6736L209.062 20.7964" stroke="#F02222" stroke-width="0.506424" stroke-linecap="round"/>
<path d="M209.315 21.6736L209.821 20.7964" stroke="#F02222" stroke-width="0.506424" stroke-linecap="round"/>
<path d="M210.074 21.6736L210.581 20.7964" stroke="#F02222" stroke-width="0.506424" stroke-linecap="round"/>
<ellipse cx="194.547" cy="18.5996" rx="1.38" ry="2.42133" fill="#080808"/>
<ellipse cx="194.524" cy="17.9946" rx="0.460002" ry="0.605334" fill="white"/>
<ellipse opacity="0.8" cx="0.207001" cy="0.3632" rx="0.207001" ry="0.3632" transform="matrix(1 0 0 -1 193.856 19.8106)" fill="#EDEDED"/>
<ellipse cx="1.38" cy="2.42133" rx="1.38" ry="2.42133" transform="matrix(-1 0 0 1 207.439 16.1783)" fill="#080808"/>
<ellipse cx="0.460002" cy="0.605334" rx="0.460002" ry="0.605334" transform="matrix(-1 0 0 1 206.542 17.3893)" fill="white"/>
<ellipse opacity="0.8" cx="206.543" cy="19.4474" rx="0.207001" ry="0.3632" transform="rotate(180 206.543 19.4474)" fill="#EDEDED"/>
<rect x="232.5" y="0.501953" width="49" height="49" rx="23.75" fill="#3B3B3B"/>
<rect x="232.5" y="0.501953" width="49" height="49" rx="23.75" stroke="#080808"/>
<path d="M252.375 33.6796L255.478 27.5753L260.651 27.2162L256.858 31.1661L262.375 30.4479L254.444 40.502L257.547 32.9614L252.375 33.6796Z" fill="#F4B557" stroke="#EE7802" stroke-linecap="round" stroke-linejoin="round"/>
<path d="M265.375 31.98L267.237 28.3174L270.341 28.102L268.065 30.4718L271.375 30.041L266.616 36.0734L268.478 31.5491L265.375 31.98Z" fill="#F4B557" stroke="#EE7802" stroke-linecap="round" stroke-linejoin="round"/>
<path d="M244.375 31.5491L245.927 28.2935L248.513 28.102L246.616 30.2085L249.375 29.8255L245.409 35.1877L246.961 31.1661L244.375 31.5491Z" fill="#F4B557" stroke="#EE7802" stroke-linecap="round" stroke-linejoin="round"/>
<mask id="path-82-inside-5_2502_11659" fill="white">
<path fill-rule="evenodd" clip-rule="evenodd" d="M265.03 27.1378C263.378 28.3015 261.348 28.9877 259.153 28.9877C257.536 28.9877 256.008 28.6153 254.655 27.954C253.494 29.1366 251.856 29.8734 250.042 29.8734C247.314 29.8734 244.987 28.2091 244.075 25.8682C243.393 26.1653 242.637 26.3305 241.842 26.3305C238.823 26.3305 236.375 23.9512 236.375 21.0162C236.375 18.0812 238.823 15.702 241.842 15.702C242.771 15.702 243.647 15.9276 244.414 16.3257C245.487 14.3732 247.605 13.0448 250.042 13.0448C250.479 13.0448 250.905 13.0875 251.318 13.1689C253.154 10.9339 255.981 9.50195 259.153 9.50195C263.049 9.50195 266.425 11.6629 268.084 14.8191C268.144 14.8172 268.204 14.8162 268.264 14.8162C270.314 14.8162 272.101 15.9138 273.037 17.5375C273.261 17.4954 273.493 17.4734 273.731 17.4734C275.743 17.4734 277.375 19.0596 277.375 21.0162C277.375 22.6879 276.184 24.0892 274.582 24.4619C274.19 27.023 271.919 28.9877 269.175 28.9877C267.517 28.9877 266.032 28.2704 265.03 27.1378Z"/>
</mask>
<path fill-rule="evenodd" clip-rule="evenodd" d="M265.03 27.1378C263.378 28.3015 261.348 28.9877 259.153 28.9877C257.536 28.9877 256.008 28.6153 254.655 27.954C253.494 29.1366 251.856 29.8734 250.042 29.8734C247.314 29.8734 244.987 28.2091 244.075 25.8682C243.393 26.1653 242.637 26.3305 241.842 26.3305C238.823 26.3305 236.375 23.9512 236.375 21.0162C236.375 18.0812 238.823 15.702 241.842 15.702C242.771 15.702 243.647 15.9276 244.414 16.3257C245.487 14.3732 247.605 13.0448 250.042 13.0448C250.479 13.0448 250.905 13.0875 251.318 13.1689C253.154 10.9339 255.981 9.50195 259.153 9.50195C263.049 9.50195 266.425 11.6629 268.084 14.8191C268.144 14.8172 268.204 14.8162 268.264 14.8162C270.314 14.8162 272.101 15.9138 273.037 17.5375C273.261 17.4954 273.493 17.4734 273.731 17.4734C275.743 17.4734 277.375 19.0596 277.375 21.0162C277.375 22.6879 276.184 24.0892 274.582 24.4619C274.19 27.023 271.919 28.9877 269.175 28.9877C267.517 28.9877 266.032 28.2704 265.03 27.1378Z" fill="#A1A1A1"/>
<path d="M265.03 27.1378L265.778 26.475L265.185 25.8047L264.453 26.3204L265.03 27.1378ZM254.655 27.954L255.095 27.0556L254.447 26.739L253.942 27.2533L254.655 27.954ZM244.075 25.8682L245.007 25.5053L244.629 24.536L243.676 24.9515L244.075 25.8682ZM244.414 16.3257L243.953 17.2131L244.819 17.6631L245.29 16.8076L244.414 16.3257ZM251.318 13.1689L251.124 14.15L251.711 14.2658L252.09 13.8038L251.318 13.1689ZM268.084 14.8191L267.198 15.2842L267.49 15.8383L268.115 15.8186L268.084 14.8191ZM273.037 17.5375L272.17 18.0367L272.524 18.6509L273.221 18.5204L273.037 17.5375ZM274.582 24.4619L274.355 23.4879L273.696 23.6413L273.593 24.3107L274.582 24.4619ZM264.453 26.3204C262.967 27.368 261.137 27.9877 259.153 27.9877V29.9877C261.559 29.9877 263.79 29.235 265.606 27.9552L264.453 26.3204ZM259.153 27.9877C257.69 27.9877 256.313 27.6512 255.095 27.0556L254.216 28.8524C255.703 29.5794 257.381 29.9877 259.153 29.9877V27.9877ZM253.942 27.2533C252.964 28.2492 251.581 28.8734 250.042 28.8734V30.8734C252.131 30.8734 254.024 30.024 255.369 28.6547L253.942 27.2533ZM250.042 28.8734C247.726 28.8734 245.769 27.4619 245.007 25.5053L243.143 26.2311C244.205 28.9563 246.902 30.8734 250.042 30.8734V28.8734ZM243.676 24.9515C243.118 25.1944 242.498 25.3305 241.842 25.3305V27.3305C242.777 27.3305 243.668 27.1362 244.474 26.785L243.676 24.9515ZM241.842 25.3305C239.348 25.3305 237.375 23.3725 237.375 21.0162H235.375C235.375 24.53 238.297 27.3305 241.842 27.3305V25.3305ZM237.375 21.0162C237.375 18.66 239.348 16.702 241.842 16.702V14.702C238.297 14.702 235.375 17.5025 235.375 21.0162H237.375ZM241.842 16.702C242.608 16.702 243.326 16.8877 243.953 17.2131L244.874 15.4382C243.968 14.9675 242.935 14.702 241.842 14.702V16.702ZM245.29 16.8076C246.19 15.1708 247.974 14.0448 250.042 14.0448V12.0448C247.236 12.0448 244.785 13.5756 243.537 15.8437L245.29 16.8076ZM250.042 14.0448C250.413 14.0448 250.775 14.0811 251.124 14.15L251.511 12.1879C251.036 12.0939 250.544 12.0448 250.042 12.0448V14.0448ZM252.09 13.8038C253.741 11.7947 256.287 10.502 259.153 10.502V8.50195C255.676 8.50195 252.567 10.0731 250.545 12.5341L252.09 13.8038ZM259.153 10.502C262.673 10.502 265.711 12.4535 267.198 15.2842L268.969 14.3539C267.14 10.8723 263.424 8.50195 259.153 8.50195V10.502ZM268.115 15.8186C268.165 15.817 268.214 15.8162 268.264 15.8162V13.8162C268.193 13.8162 268.123 13.8174 268.052 13.8196L268.115 15.8186ZM268.264 15.8162C269.952 15.8162 271.411 16.7186 272.17 18.0367L273.903 17.0383C272.792 15.1089 270.677 13.8162 268.264 13.8162V15.8162ZM273.221 18.5204C273.385 18.4896 273.555 18.4734 273.731 18.4734V16.4734C273.431 16.4734 273.138 16.5012 272.853 16.5546L273.221 18.5204ZM273.731 18.4734C275.218 18.4734 276.375 19.6383 276.375 21.0162H278.375C278.375 18.4808 276.269 16.4734 273.731 16.4734V18.4734ZM276.375 21.0162C276.375 22.1945 275.533 23.214 274.355 23.4879L274.808 25.4359C276.835 24.9644 278.375 23.1814 278.375 21.0162H276.375ZM273.593 24.3107C273.278 26.3701 271.438 27.9877 269.175 27.9877V29.9877C272.399 29.9877 275.102 27.6758 275.57 24.6132L273.593 24.3107ZM269.175 27.9877C267.81 27.9877 266.596 27.3983 265.778 26.475L264.281 27.8006C265.469 29.1426 267.224 29.9877 269.175 29.9877V27.9877Z" fill="#6E6E6E" mask="url(#path-82-inside-5_2502_11659)"/>
<path d="M250.375 21.8777L250.903 20.964" stroke="#F7CA87" stroke-width="0.527525" stroke-linecap="round"/>
<path d="M251.167 21.8777L251.694 20.964" stroke="#F7CA87" stroke-width="0.527525" stroke-linecap="round"/>
<path d="M251.958 21.8777L252.485 20.964" stroke="#F7CA87" stroke-width="0.527525" stroke-linecap="round"/>
<path d="M262.375 21.8777L262.903 20.964" stroke="#F7CA87" stroke-width="0.527525" stroke-linecap="round"/>
<path d="M263.167 21.8777L263.694 20.964" stroke="#F7CA87" stroke-width="0.527525" stroke-linecap="round"/>
<path d="M263.958 21.8777L264.485 20.964" stroke="#F7CA87" stroke-width="0.527525" stroke-linecap="round"/>
<ellipse cx="252.397" cy="20.1037" rx="1.02222" ry="0.905398" fill="#3B3B3B"/>
<ellipse cx="252.38" cy="19.8774" rx="0.340741" ry="0.22635" fill="#EDEDED"/>
<ellipse opacity="0.8" cx="0.153334" cy="0.13581" rx="0.153334" ry="0.13581" transform="matrix(1 0 0 -1 251.886 20.5565)" fill="#EDEDED"/>
<ellipse cx="1.02222" cy="0.905398" rx="1.02222" ry="0.905398" transform="matrix(-1 0 0 1 263.464 19.1983)" fill="#3B3B3B"/>
<ellipse cx="0.340741" cy="0.22635" rx="0.340741" ry="0.22635" transform="matrix(-1 0 0 1 262.799 19.6511)" fill="#EDEDED"/>
<ellipse opacity="0.8" cx="262.799" cy="20.4207" rx="0.153334" ry="0.13581" transform="rotate(180 262.799 20.4207)" fill="#EDEDED"/>
<path d="M249.875 17.9162C250.875 18.5067 253.075 19.5105 253.875 18.8019" stroke="#3B3B3B" stroke-linecap="round" stroke-linejoin="round"/>
<path d="M265.375 17.9162C264.375 18.5067 262.175 19.5105 261.375 18.8019" stroke="#3B3B3B" stroke-linecap="round" stroke-linejoin="round"/>
<path d="M255.375 23.6734C256.133 23.005 258.33 22.0693 260.375 23.6734" stroke="#3B3B3B" stroke-width="0.8" stroke-linecap="round"/>
<defs>
<clipPath id="clip0_2502_11659">
<rect y="0.00195312" width="50" height="50" rx="24.25" fill="white"/>
</clipPath>
<clipPath id="clip1_2502_11659">
<rect x="58" y="0.00195312" width="50" height="50" rx="24.25" fill="white"/>
</clipPath>
</defs>
</svg>
